<?xml version="1.0" encoding="utf-8"?>
<!-- Generator: Adobe Illustrator 26.0.1, SVG Export Plug-In . SVG Version: 6.00 Build 0)  -->
<svg version="1.1" id="Layer_1" xmlns="http://www.w3.org/2000/svg" xmlns:xlink="http://www.w3.org/1999/xlink" x="0px" y="0px"
	 viewBox="0 0 315.4 57" style="enable-background:new 0 0 315.4 57;" xml:space="preserve">
<style type="text/css">
	.st0{fill:#FFFFFF;}
</style>
<g>
	<path class="st0" d="M280.4,29.3c-1.2-1-2.3-1.4-3.5-1.4c-2.5,0-4.3,2.5-4.9,5.5V44h-10V18h9v7h0.1c1.8-4.9,4.8-7.5,8.4-7.5
		c1.5,0,3,0.4,4.7,1.1L280.4,29.3z"/>
	<path class="st0" d="M238.3,43c-4,0.9-9.3,1.6-13.4,1.6c-14.6,0-19.8-9.7-19.8-17.1c0-10.6,8.4-17.9,20.6-17.9
		c4,0,11.3,2.3,11.3,2.3v8.8c-3.3-1.8-6.6-2.8-9.6-2.8c-5.9,0-9.9,3.7-9.9,9.2c0,6.9,4.5,9.9,11.5,8.9V32h-4v-7h13v18H238.3z"/>
	<path class="st0" d="M245,18h10v26h-10V18z M253.2,12.4c0,1.9-1.5,3.5-3.5,3.5c-1.9,0-3.5-1.5-3.5-3.5c0-1.9,1.5-3.5,3.5-3.5
		C251.6,8.9,253.2,10.5,253.2,12.4z"/>
	<path class="st0" d="M294.5,31c0-3.1,2.2-5.3,5.4-5.3c3.2,0,5.4,2.2,5.4,5.3s-2.2,5.3-5.4,5.3S294.5,34.1,294.5,31z M284.4,31
		c0,6.4,4.4,13.6,15.6,13.6c10.5,0,15.4-6.6,15.4-13.6c0-6.4-4.3-13.6-15.5-13.6C289,17.3,284.4,24.2,284.4,31z"/>
	<g>
		<polygon class="st0" points="28.9,33 39.3,33 34.1,19.5 		"/>
		<path class="st0" d="M124,32.8c-2.6,1.7-7.9,1.4-7.6,5.3c0.1,1.3,1.3,2.5,2.6,2.6c1.7,0.1,3.7-0.6,5.2-1.8
			c-0.1-0.6-0.2-1.2-0.2-2.4V32.8z"/>
		<path class="st0" d="M169,23.1c-2.7,0-4.7,1.8-4.5,5.9h9C173.5,25.1,172,23.1,169,23.1z"/>
		<path class="st0" d="M0,0v57h194V0H0z M44.9,44l-2.4-6H25.7l-2.4,6H12.4l15.5-34h12.5l15.4,34H44.9z M70.3,44h-7.3L51.4,18h11
			l5.4,13.8L73.2,18h8.2L70.3,44z M106,42.2c-2.7,2-5.5,2.9-9,2.9c-3,0-6.2-0.9-8.1-2.8c-1.5-1.5-2-3.4-2-7V25h-4v-4.5L94.6,10H97v8
			h8v7h-8v9.6c0,1.9,1.5,3.4,3.3,3.5c1.8,0,3.3-0.3,5.7-1.8V42.2z M135.2,44.3c-5.1,0.4-7.6-0.2-9.2-2.4c-2.5,1.7-5.4,2.5-8.5,2.5
			c-5.8,0-8.3-3-8.3-6.4c0-1.6,0.7-3.2,2-4.5c2.8-2.8,10.6-3.2,13.4-5.3c-0.1-2.4-1.2-3.2-4.1-3.2c-3.4,0-6,1.2-10.4,4.5V22
			c3.8-3.1,7.6-4.5,12.3-4.5c6,0,11.7,2.5,11.7,9V34c0,2.7,0.2,3.4,3.1,3.5L135.2,44.3z M151,44h-10V10h10V44z M170.4,44.6
			c-9.1,0-15-6-15-13.7c0-7.7,5.8-13.5,13.6-13.5c8.1,0,14.3,6.5,13.2,15.6H165c0,2.7,3.2,5.2,7.2,5.2c2.8,0,5.4-0.9,8.4-3l2,4.3
			C179.7,42.8,175.4,44.6,170.4,44.6z"/>
	</g>
</g>
</svg>
