<?xml version="1.0" encoding="utf-8"?>
<!-- Generator: Adobe Illustrator 26.1.0, SVG Export Plug-In . SVG Version: 6.00 Build 0)  -->
<svg version="1.1" id="Group_333" xmlns="http://www.w3.org/2000/svg" xmlns:xlink="http://www.w3.org/1999/xlink" x="0px" y="0px"
	 viewBox="0 0 1973.5 500" style="enable-background:new 0 0 1973.5 500;" xml:space="preserve">
<style type="text/css">
	.st0{clip-path:url(#SVGID_00000150821485275727536610000004916968004760777373_);}
	.st1{fill:#FFD500;}
</style>
<g>
	<defs>
		<rect id="SVGID_1_" width="1973.5" height="500"/>
	</defs>
	<clipPath id="SVGID_00000137821162601085236870000014078541479885121727_">
		<use xlink:href="#SVGID_1_"  style="overflow:visible;"/>
	</clipPath>
	<g id="Group_332" style="clip-path:url(#SVGID_00000137821162601085236870000014078541479885121727_);">
		<path id="Path_108" class="st1" d="M1972.6,0.6v295.5c-59.8,32.5-123.3,63.3-188.6,90.6c-204.5,85.8-426.3,137.7-606.4,100.4
			c-94.2-19.5-153.6-58.6-201.6-100.4c-82.1-71.7-130.6-151.5-263.4-155C550.5,227.5,461,342.2,344,386.8
			c-30.8,11.7-63.5,18.6-99.9,17.2c-28.2-1.1-57.3-7.1-86.1-17.2C102.1,367.3,47.1,332.8,0.9,290V0.6H1972.6z"/>
		<path id="Path_109" class="st1" d="M1972.6,0.6v295.5c-59.8,32.5-123.3,63.3-188.6,90.6c-204.5,85.8-426.3,137.7-606.4,100.4
			c-94.2-19.5-153.6-58.6-201.6-100.4c-82.1-71.7-130.6-151.5-263.4-155C550.5,227.5,461,342.2,344,386.8
			c-30.8,11.7-63.5,18.6-99.9,17.2c-28.2-1.1-57.3-7.1-86.1-17.2C102.1,367.3,47.1,332.8,0.9,290V0.6H1972.6z"/>
	</g>
</g>
</svg>
