<?xml version="1.0" encoding="utf-8"?>
<svg id="Group_333" data-name="Group 333" xmlns="http://www.w3.org/2000/svg" xmlns:xlink="http://www.w3.org/1999/xlink" width="1973.5" height="500" viewBox="0 0 1973.5 500">
	<defs>
	  <clipPath id="clip-path">
		<rect id="Rectangle_134" data-name="Rectangle 134" width="1973.5" height="500" fill="#ffd500"/>
	  </clipPath>
	</defs>
	<g id="Group_332" data-name="Group 332" clip-path="url(#clip-path)">
	  <path id="Path_108" data-name="Path 108" d="M1972.144.5V296.048C1912.3,328.5,1848.8,359.327,1783.553,386.677c-204.531,85.786-426.265,137.681-606.413,100.386-94.249-19.49-153.631-58.553-201.562-100.386-82.113-71.669-130.62-151.468-263.412-154.968-162.13-4.278-251.573,110.414-368.572,154.968-30.786,11.737-63.464,18.595-99.89,17.169-28.225-1.108-57.3-7.117-86.14-17.169C101.634,367.234,46.632,332.743.5,289.956V.5Z" transform="translate(0.428 0.089)" fill="#ffd500"/>
	  <path id="Path_109" data-name="Path 109" d="M1972.144.5V296.048C1912.3,328.5,1848.8,359.327,1783.553,386.677c-204.531,85.786-426.265,137.681-606.413,100.386-94.249-19.49-153.631-58.553-201.562-100.386-82.113-71.669-130.62-151.468-263.412-154.968-162.13-4.278-251.573,110.414-368.572,154.968-30.786,11.737-63.464,18.595-99.89,17.169-28.225-1.108-57.3-7.117-86.14-17.169C101.634,367.234,46.632,332.743.5,289.956V.5Z" transform="translate(0.428 0.089)" fill="#ffd500"/>
	</g>
  </svg>
  