<?xml version="1.0" encoding="utf-8"?>
<!-- Generator: Adobe Illustrator 26.0.3, SVG Export Plug-In . SVG Version: 6.00 Build 0)  -->
<svg version="1.1" id="Layer_1" focusable="false" xmlns="http://www.w3.org/2000/svg" xmlns:xlink="http://www.w3.org/1999/xlink"
	 x="0px" y="0px" viewBox="0 0 16 15.8" style="enable-background:new 0 0 16 15.8;" xml:space="preserve">
<style type="text/css">
	.st0{opacity:0.42;enable-background:new    ;}
</style>
<g>
	<path d="M5.6,15.6c0,0-0.1,0.1-0.2,0.1c-0.3,0.1-0.8,0.1-1.5,0.1c-1,0-1.7-0.1-2.2-0.4c-0.6-0.4-0.9-1-0.9-1.9
		c0-0.3,0.2-0.9,0.4-1.8c0.3-0.8,0.4-1.4,0.4-1.7c0-0.4-0.2-0.7-0.5-0.9c-0.3-0.2-0.6-0.3-1-0.3C0.1,8.7,0,8.7,0,8.6
		c0-0.1,0-0.2,0.1-0.3c0-0.2,0.1-0.3,0.1-0.3c0-0.1,0-0.2-0.1-0.3C0,7.4,0,7.3,0,7.2C0,7.1,0.1,7,0.2,7c0.4,0,0.7-0.1,1-0.3
		c0.3-0.2,0.5-0.5,0.5-0.9c0-0.3-0.2-0.8-0.5-1.7C1,3.3,0.8,2.7,0.8,2.4c0-0.9,0.3-1.6,0.9-1.9C2.3,0.1,3,0,4,0c0.7,0,1.2,0,1.5,0.1
		c0.1,0,0.2,0.1,0.2,0.1c0,0.1,0,0.2,0,0.4c0,0.2,0,0.3,0,0.4c0,0.1,0,0.2,0,0.4c0,0.2,0,0.3,0,0.4c0,0.1-0.1,0.2-0.2,0.2
		C5.2,2.1,5,2.1,4.7,2C4.4,2,4.1,2,4,2C3.6,2,3.4,2.3,3.4,2.8c0,0.3,0.1,0.7,0.3,1.4C3.9,4.9,4,5.3,4,5.6C4,6.1,3.9,6.5,3.7,7
		c-0.2,0.6-0.6,0.9-1,0.9c0.4,0,0.7,0.2,1,0.6C4,8.9,4.1,9.3,4.1,9.7c0,0.4-0.1,0.9-0.4,1.7c-0.2,0.8-0.4,1.3-0.4,1.6
		c0,0.6,0.2,0.9,0.7,0.9c0.2,0,0.4,0,0.7-0.1c0.3-0.1,0.5-0.1,0.7-0.1c0.1,0,0.1,0.1,0.1,0.2c0,0.1,0,0.2,0,0.4c0,0.2,0,0.3,0,0.4
		s0,0.2,0.1,0.4C5.6,15.3,5.6,15.5,5.6,15.6z"/>
	<path class="st0" d="M16,8.6c0,0.1-0.1,0.2-0.2,0.2c-0.4,0-0.7,0.1-1,0.3c-0.3,0.2-0.5,0.5-0.5,0.9c0,0.3,0.2,0.9,0.4,1.7
		c0.3,0.8,0.4,1.4,0.4,1.8c0,0.9-0.3,1.6-0.9,1.9c-0.5,0.3-1.2,0.4-2.2,0.4c-0.7,0-1.2,0-1.5-0.1c-0.1,0-0.2-0.1-0.2-0.1
		c0-0.1,0-0.2,0.1-0.4c0-0.2,0.1-0.3,0.1-0.4s0-0.2,0-0.4c0-0.2,0-0.3,0-0.4c0-0.1,0-0.2,0.1-0.2c0.1,0,0.4,0,0.7,0.1
		c0.3,0.1,0.6,0.1,0.7,0.1c0.4,0,0.7-0.3,0.7-0.9c0-0.3-0.1-0.8-0.4-1.6c-0.2-0.8-0.4-1.3-0.4-1.7c0-0.4,0.1-0.8,0.4-1.2
		c0.3-0.4,0.6-0.6,1-0.6c-0.4,0-0.7-0.3-1-0.9C12.1,6.5,12,6.1,12,5.6c0-0.3,0.1-0.8,0.3-1.4c0.2-0.6,0.3-1.1,0.3-1.4
		C12.6,2.2,12.4,2,12,2c-0.2,0-0.4,0-0.7,0.1c-0.3,0-0.5,0.1-0.7,0.1c-0.1,0-0.2-0.1-0.2-0.2c0-0.1,0-0.2,0-0.4s0-0.3,0-0.4
		c0-0.1,0-0.2,0-0.4c0-0.2,0-0.3,0-0.4c0,0,0.1-0.1,0.2-0.1C10.8,0,11.3,0,12,0c1,0,1.7,0.1,2.2,0.4c0.6,0.4,0.9,1,0.9,1.9
		c0,0.3-0.2,0.9-0.5,1.7c-0.3,0.8-0.5,1.4-0.5,1.7c0,0.4,0.2,0.7,0.5,0.9c0.3,0.2,0.6,0.3,1,0.3C15.9,7,16,7.1,16,7.2
		c0,0.1,0,0.2-0.1,0.3c0,0.2-0.1,0.3-0.1,0.3c0,0.1,0,0.2,0.1,0.3C16,8.4,16,8.5,16,8.6z"/>
</g>
  	<!-- dark mode favicon -->
  	<style>
		@media (prefers-color-scheme: dark) {
			:root {
				filter: invert(100%);
			}
		}
  	</style>
</svg>
