<?xml version="1.0" encoding="utf-8"?>
<!-- Generator: Adobe Illustrator 26.0.3, SVG Export Plug-In . SVG Version: 6.00 Build 0)  -->
<svg version="1.1" id="Layer_1" xmlns="http://www.w3.org/2000/svg" xmlns:xlink="http://www.w3.org/1999/xlink" x="0px" y="0px"
	 viewBox="0 0 40.7 37" style="enable-background:new 0 0 40.7 37;" xml:space="preserve">
<style type="text/css">
	.st0{fill:#FFD500;}
	.st1{enable-background:new    ;}
</style>
<path class="st0" d="M20.4,37c-5.2-3.5-9.4-7.1-12.7-10.6c-3-3.2-5.1-6.3-6.4-9.3c-1-2.4-1.4-4.7-1.3-6.8c0.1-1.9,0.7-3.7,1.7-5.2
	c2.2-3.2,6-5.1,10-5.1C15.1,0,18,1.4,20,3.8l0.4,0.5l0.4-0.5c2-2.5,5-3.8,8.3-3.8c4,0,7.8,1.9,9.9,5.1c1,1.5,1.6,3.3,1.7,5.2
	c0.1,2.1-0.3,4.4-1.3,6.8c-1.3,3-3.4,6.2-6.4,9.3C29.9,29.9,25.6,33.5,20.4,37z"/>
<g class="st1">
	<path d="M17.4,16.9c-0.5,0-1-0.2-1.3-0.5c-0.4-0.4-0.6-0.8-0.6-1.3s0.2-1,0.6-1.3c0.4-0.4,0.8-0.6,1.3-0.6s0.9,0.2,1.3,0.6
		c0.4,0.4,0.5,0.8,0.5,1.3S19,16,18.7,16.4S17.9,16.9,17.4,16.9z M23.5,16.9c-0.5,0-1-0.2-1.3-0.5c-0.4-0.4-0.6-0.8-0.6-1.3
		s0.2-1,0.6-1.3c0.4-0.4,0.8-0.6,1.3-0.6s0.9,0.2,1.3,0.6c0.4,0.4,0.5,0.8,0.5,1.3s-0.2,0.9-0.5,1.3C24.5,16.8,24,16.9,23.5,16.9z
		 M23.5,22.7c-0.5,0-1-0.2-1.3-0.5c-0.4-0.4-0.6-0.8-0.6-1.3s0.2-1,0.6-1.3c0.4-0.4,0.8-0.6,1.3-0.6s0.9,0.2,1.3,0.6
		c0.4,0.4,0.5,0.8,0.5,1.3s-0.2,0.9-0.5,1.3S24,22.7,23.5,22.7z"/>
</g>
  	<!-- dark mode favicon -->
  	<style>
		@media (prefers-color-scheme: dark) {
			:root {
				filter: invert(100%);
			}
		}
  	</style>
</svg>
