<?xml version="1.0" encoding="utf-8"?>
<!-- Generator: Adobe Illustrator 26.0.1, SVG Export Plug-In . SVG Version: 6.00 Build 0)  -->
<svg version="1.1" id="Layer_1" focusable="false" xmlns="http://www.w3.org/2000/svg" xmlns:xlink="http://www.w3.org/1999/xlink"
	 x="0px" y="0px" viewBox="0 0 1351 448" style="enable-background:new 0 0 1351 448;" xml:space="preserve">
<path d="M0,400c0,26.5,21.5,48,48,48h480c26.5,0,48-21.5,48-48V224H0V400z M192,332c0-6.6,5.4-12,12-12h136c6.6,0,12,5.4,12,12v40
	c0,6.6-5.4,12-12,12H204c-6.6,0-12-5.4-12-12V332z M64,332c0-6.6,5.4-12,12-12h72c6.6,0,12,5.4,12,12v40c0,6.6-5.4,12-12,12H76
	c-6.6,0-12-5.4-12-12V332z M576,48v48H0V48C0,21.5,21.5,0,48,0h480C554.5,0,576,21.5,576,48z"/>
<path d="M1245.1,199.3c0,0,7.6,37.2,9.3,45H1221c3.3-8.9,16-43.5,16-43.5c-0.2,0.3,3.3-9.1,5.3-14.9L1245.1,199.3L1245.1,199.3z
	 M1351,48v352c0,26.5-21.5,48-48,48H823c-26.5,0-48-21.5-48-48V48c0-26.5,21.5-48,48-48h480C1329.5,0,1351,21.5,1351,48z
	 M927.5,299.2L990.7,144h-42.5l-39.3,106l-4.3-21.5l-14-71.4c-2.3-9.9-9.4-12.7-18.2-13.1h-64.7l-0.7,3.1c15.8,4,29.9,9.8,42.2,17.1
	l35.8,135H927.5z M1021.9,299.4l25.2-155.4h-40.2l-25.1,155.4L1021.9,299.4L1021.9,299.4z M1161.8,248.6
	c0.2-17.7-10.6-31.2-33.7-42.3c-14.1-7.1-22.7-11.9-22.7-19.2c0.2-6.6,7.3-13.4,23.1-13.4c13.1-0.3,22.7,2.8,29.9,5.9l3.6,1.7
	l5.5-33.6c-7.9-3.1-20.5-6.6-36-6.6c-39.7,0-67.6,21.2-67.8,51.4c-0.3,22.3,20,34.7,35.2,42.2c15.5,7.6,20.8,12.6,20.8,19.3
	c-0.2,10.4-12.6,15.2-24.1,15.2c-16,0-24.6-2.5-37.7-8.3l-5.3-2.5l-5.6,34.9c9.4,4.3,26.8,8.1,44.8,8.3
	C1134,301.7,1161.5,280.8,1161.8,248.6L1161.8,248.6z M1303,299.4L1270.6,144h-31.1c-9.6,0-16.9,2.8-21,12.9l-59.7,142.5h42.2
	c0,0,6.9-19.2,8.4-23.3h51.6c1.2,5.5,4.8,23.3,4.8,23.3H1303z"/>
</svg>
