<svg xmlns="http://www.w3.org/2000/svg" width="390.66" height="437.809" viewBox="0 0 390.66 437.809">
	<g id="Component_65_1" data-name="Component 65 – 1" transform="translate(0.766 1.26)">
	  <g id="humaaan-3" transform="translate(-20.497 -41.334)">
		<g id="Head_Front" data-name="Head/Front" transform="matrix(0.966, -0.259, 0.259, 0.966, 112.025, 53.485)">
		  <g id="Head" transform="translate(0.12 2.142)">
			<path id="Head-2" data-name="Head" d="M0,78.939,8.949,37.3C3.958,31.447.58,24.279,1.144,16.248,2.771-6.894,35.036-1.8,41.312,9.877s5.531,41.307-2.58,43.394c-3.235.833-10.126-1.207-17.14-5.428l4.4,31.1Z" transform="translate(0 0)" fill="#505050" stroke="#000" stroke-width="2"/>
		  </g>
		  <path id="Hair" d="M21.885,48.717c-1.746-5.265-2.411-20.424-2.573-24.9a6.577,6.577,0,0,0-.78-.046A6.486,6.486,0,0,0,13.992,34.9c-1.5,2.119-3.188,4.333-5.12,6.617C1.617,37.17-3.766,24.448,3.327,12.229c1.96-5.986,6.4-9.184,11.64-10.669A18.883,18.883,0,0,1,27.341.649c7.293.625,13.806,2.846,15.652,4.164,0,6.893-1.338,8.939-12.766,8.759-2.808,1.48-4.967,4.03-7.215,7.372.016.223,1.527,20.758,7.9,20.758,6.4,0,11.837-4.059,14.647-4.059,2.048,0,1.591,2.56.233,4.456-1.12,1.566-6.575,3.074-6.575,5.5,0,1.37,1.374,1.368,2.57,1.365.922,0,1.739,0,1.739.624,0,2.381.758,6.857-3.382,6.857C35.953,56.448,23.943,54.924,21.885,48.717Z" transform="translate(0 0)" stroke="#000" stroke-width="2"/>
		</g>
		<g id="Bottom_Skinny_Jeans_1" data-name="Bottom/Skinny Jeans 1" transform="translate(20.497 218.436)">
		  <path id="Leg" d="M0,0,53.16,134.335,88.814,247.9h14.079L48.385,0Z" transform="translate(124.636)" fill="#505050" stroke="#000" stroke-width="2"/>
		  <path id="Leg-2" data-name="Leg" d="M101.2,0c-.566,47.206-8.822,110.762-10.14,113.7S0,188.544,0,188.544l9.7,10.361s105.891-61.643,110.791-69.865S141.341,45.161,154.149,0Z" transform="translate(12.728)" fill="#505050" stroke="#000" stroke-width="2"/>
		  <g id="Left_Shoe" data-name="Left Shoe" transform="translate(30.642 165.211) rotate(50)">
			<path id="shoe" d="M4.474,5.033A2,2,0,0,0,1.908,6.381L0,13.106A64.242,64.242,0,0,0,.9,21H57.3s2.2-7.268-2.538-7.848-7.87-1.047-7.87-1.047L20.68.419a1,1,0,0,0-1.332.532L17.663,5.039s-4.385,2.046-7.127,2.046Z" transform="translate(1 19)" stroke="#000" stroke-miterlimit="10" stroke-width="2"/>
		  </g>
		  <g id="Right_Shoe" data-name="Right Shoe" transform="translate(204.785 215.192)">
			<path id="shoe-2" data-name="shoe" d="M4.845,5.415A2.167,2.167,0,0,0,2.067,6.874L0,14.145a69.363,69.363,0,0,0,.976,8.537H62.064s2.381-7.86-2.749-8.486-8.524-1.132-8.524-1.132L22.4.426A1.084,1.084,0,0,0,20.956,1l-1.825,4.42s-4.749,2.212-7.719,2.212Z" transform="translate(1.083 20.573)" stroke="#000" stroke-miterlimit="10" stroke-width="2"/>
		  </g>
		  <path id="Pant" d="M42.626,236.206l66.94-7.253L59.955,0H0Z" transform="translate(117.752 0)" stroke="#000" stroke-width="2"/>
		  <path id="Pant-2" data-name="Pant" d="M0,171.83l43.908,51.89S113.28,148.074,124.8,125,145.5,0,145.5,0H78s-5.019,89.673-6.767,93.846S0,171.83,0,171.83Z" transform="translate(26.574)" stroke="#000" stroke-width="2"/>
		</g>
		<g id="Body_Long_Sleeve_1" data-name="Body/Long Sleeve 1" transform="matrix(0.985, -0.174, 0.174, 0.985, 43.073, 121.417)">
		  <path id="Skin" d="M1.329,93.844C.12,93.1-1.2,90.3,1.994,88.107,9.964,82.652,21.448,73.1,23,69.961,26.174,63.532,36.982.874,36.982.874l22.633.09s-20.963,67.564-22.633,71.7c-2.506,6.2,2.8,15.646,5.065,20.721-3.575,1.6-5.236-.442-7.053-2.481-1.938-2.173-4.056-4.346-8.864-2.113-6.152,2.858-11.239,7.394-17.3,7.394A14.084,14.084,0,0,1,1.329,93.844Zm194.877-60.83L161.994,18.85,169.631,0,204.18,25.329a93.056,93.056,0,0,1,23.485,9.423c1.486,1.351,3.28,4.087-2.879,3.615s-12.658-.694-13.508,1.4,2.878,4.605,1.159,7.435a.817.817,0,0,1-.749.4Q208.652,47.609,196.206,33.014Z" transform="translate(0 103.513)" fill="#505050" stroke="#000" stroke-width="2"/>
		  <path id="Coat_Back" data-name="Coat Back" d="M0,2.413,9.19,0C46.419,26.827,65.655,82.94,110.745,109.613l-9.107,13.533C27.231,120.486,2.865,52.12,0,2.413Z" transform="matrix(0.996, 0.087, -0.087, 0.996, 101.514, 7.161)" fill="#fff" stroke="#000" stroke-width="2"/>
		  <path id="Shirt" d="M0,123.276H82.868c3.787,0,3.073-5.459,2.526-8.214C79.077,83.269,54.416,49,54.416,3.742L30.512,0C10.741,31.747,3.9,70.834,0,123.276Z" transform="translate(60.477 3.799)" fill="#f9e57f" stroke="#000" stroke-width="2"/>
		  <path id="Coat_Front" data-name="Coat Front" d="M.11,172.492C-1.8,110.769,21.605,63.27,41.193,34.632a12.572,12.572,0,0,1-10.757-6.6C21.7,12.295,24.855,3.629,34.192.78S51.855,3.8,66.731,3.8a11.613,11.613,0,0,1,1.774.126l7.932.452s32.2,108.97,17.763,145.406H28.7a207.365,207.365,0,0,1-10.818,22.708Z" transform="translate(22.459 0)" fill="#fff" stroke="#000" stroke-width="2"/>
		  <path id="Shade" d="M24.481,39.52H0C4.49,28.754,9.443,15.458,14.72,0c2.2,19.05,5.481,32.345,9.76,39.518Z" transform="translate(51.159 110.264)" fill="rgba(80,80,80,0.31)" stroke="#000" stroke-width="2"/>
		</g>
	  </g>
	  <line id="Line_25" data-name="Line 25" x2="129" y2="253.5" transform="translate(260.003 182.186)" fill="none" stroke="#000" stroke-width="2"/>
	</g>
  </svg>
  