<?xml version="1.0" encoding="utf-8"?>
<!-- Generator: Adobe Illustrator 26.1.0, SVG Export Plug-In . SVG Version: 6.00 Build 0)  -->
<svg version="1.1" id="Layer_1" xmlns="http://www.w3.org/2000/svg" xmlns:xlink="http://www.w3.org/1999/xlink" x="0px" y="0px"
	 viewBox="0 0 579.5 612.2" style="enable-background:new 0 0 579.5 612.2;" xml:space="preserve">
<style type="text/css">
	.st0{fill:#FFD500;}
	.st1{fill:none;stroke:#000000;stroke-width:2;}
	.st2{fill:#FFFFFF;stroke:#000000;stroke-width:2;}
	.st3{fill:#FFD500;stroke:#000000;stroke-width:2;}
	.st4{fill:#CCCCCC;stroke:#000000;stroke-width:2;stroke-miterlimit:10;}
	.st5{stroke:#000000;stroke-width:2;}
	.st6{fill:#CCCCCC;stroke:#000000;stroke-width:2.0005;stroke-miterlimit:10.0025;}
	.st7{fill:#FFD500;stroke:#000000;stroke-width:1.9996;stroke-miterlimit:3.9992;}
	.st8{fill:#CCCCCC;stroke:#000000;stroke-width:2;}
	.st9{fill:#C2A405;stroke:#000000;stroke-width:2;}
</style>
<g id="Group_129" transform="translate(-7995 5836)">
	<g id="Group_3">
		<circle id="Ellipse_14" class="st0" cx="8569.5" cy="-5384.8" r="5"/>
		<circle id="Ellipse_15" class="st0" cx="8539.5" cy="-5384.8" r="5"/>
		<circle id="Ellipse_16" class="st0" cx="8510.5" cy="-5384.8" r="5"/>
		<circle id="Ellipse_17" class="st0" cx="8480.5" cy="-5384.8" r="5"/>
		<circle id="Ellipse_18" class="st0" cx="8450.5" cy="-5384.8" r="5"/>
		<circle id="Ellipse_19" class="st0" cx="8421.5" cy="-5384.8" r="5"/>
		<circle id="Ellipse_20" class="st0" cx="8391.5" cy="-5384.8" r="5"/>
		<circle id="Ellipse_21" class="st0" cx="8362.5" cy="-5384.8" r="5"/>
		<circle id="Ellipse_22" class="st0" cx="8332.5" cy="-5384.8" r="5"/>
		<circle id="Ellipse_23" class="st0" cx="8302.5" cy="-5384.8" r="5"/>
		<circle id="Ellipse_24" class="st0" cx="8273.5" cy="-5384.8" r="5"/>
		<circle id="Ellipse_25" class="st0" cx="8243.5" cy="-5384.8" r="5"/>
	</g>
	<g id="Group_4" transform="translate(0 26)">
		<circle id="Ellipse_14-2" class="st0" cx="8569.5" cy="-5384.8" r="5"/>
		<circle id="Ellipse_15-2" class="st0" cx="8539.5" cy="-5384.8" r="5"/>
		<circle id="Ellipse_16-2" class="st0" cx="8510.5" cy="-5384.8" r="5"/>
		<circle id="Ellipse_17-2" class="st0" cx="8480.5" cy="-5384.8" r="5"/>
		<circle id="Ellipse_18-2" class="st0" cx="8450.5" cy="-5384.8" r="5"/>
		<circle id="Ellipse_19-2" class="st0" cx="8421.5" cy="-5384.8" r="5"/>
		<circle id="Ellipse_20-2" class="st0" cx="8391.5" cy="-5384.8" r="5"/>
		<circle id="Ellipse_21-2" class="st0" cx="8362.5" cy="-5384.8" r="5"/>
		<circle id="Ellipse_22-2" class="st0" cx="8332.5" cy="-5384.8" r="5"/>
		<circle id="Ellipse_23-2" class="st0" cx="8302.5" cy="-5384.8" r="5"/>
		<circle id="Ellipse_24-2" class="st0" cx="8273.5" cy="-5384.8" r="5"/>
		<circle id="Ellipse_25-2" class="st0" cx="8243.5" cy="-5384.8" r="5"/>
	</g>
	<g id="Group_5" transform="translate(0 52)">
		<circle id="Ellipse_14-3" class="st0" cx="8569.5" cy="-5384.8" r="5"/>
		<circle id="Ellipse_15-3" class="st0" cx="8539.5" cy="-5384.8" r="5"/>
		<circle id="Ellipse_16-3" class="st0" cx="8510.5" cy="-5384.8" r="5"/>
		<circle id="Ellipse_17-3" class="st0" cx="8480.5" cy="-5384.8" r="5"/>
		<circle id="Ellipse_18-3" class="st0" cx="8450.5" cy="-5384.8" r="5"/>
		<circle id="Ellipse_19-3" class="st0" cx="8421.5" cy="-5384.8" r="5"/>
		<circle id="Ellipse_20-3" class="st0" cx="8391.5" cy="-5384.8" r="5"/>
		<circle id="Ellipse_21-3" class="st0" cx="8362.5" cy="-5384.8" r="5"/>
		<circle id="Ellipse_22-3" class="st0" cx="8332.5" cy="-5384.8" r="5"/>
		<circle id="Ellipse_23-3" class="st0" cx="8302.5" cy="-5384.8" r="5"/>
		<circle id="Ellipse_24-3" class="st0" cx="8273.5" cy="-5384.8" r="5"/>
		<circle id="Ellipse_25-3" class="st0" cx="8243.5" cy="-5384.8" r="5"/>
	</g>
	<g id="Group_6" transform="translate(0 78)">
		<circle id="Ellipse_14-4" class="st0" cx="8569.5" cy="-5384.8" r="5"/>
		<circle id="Ellipse_15-4" class="st0" cx="8539.5" cy="-5384.8" r="5"/>
		<circle id="Ellipse_16-4" class="st0" cx="8510.5" cy="-5384.8" r="5"/>
		<circle id="Ellipse_17-4" class="st0" cx="8480.5" cy="-5384.8" r="5"/>
		<circle id="Ellipse_18-4" class="st0" cx="8450.5" cy="-5384.8" r="5"/>
		<circle id="Ellipse_19-4" class="st0" cx="8421.5" cy="-5384.8" r="5"/>
		<circle id="Ellipse_20-4" class="st0" cx="8391.5" cy="-5384.8" r="5"/>
		<circle id="Ellipse_21-4" class="st0" cx="8362.5" cy="-5384.8" r="5"/>
		<circle id="Ellipse_22-4" class="st0" cx="8332.5" cy="-5384.8" r="5"/>
		<circle id="Ellipse_23-4" class="st0" cx="8302.5" cy="-5384.8" r="5"/>
		<circle id="Ellipse_24-4" class="st0" cx="8273.5" cy="-5384.8" r="5"/>
		<circle id="Ellipse_25-4" class="st0" cx="8243.5" cy="-5384.8" r="5"/>
	</g>
	<g id="Group_7" transform="translate(0 104)">
		<circle id="Ellipse_14-5" class="st0" cx="8569.5" cy="-5384.8" r="5"/>
		<circle id="Ellipse_15-5" class="st0" cx="8539.5" cy="-5384.8" r="5"/>
		<circle id="Ellipse_16-5" class="st0" cx="8510.5" cy="-5384.8" r="5"/>
		<circle id="Ellipse_17-5" class="st0" cx="8480.5" cy="-5384.8" r="5"/>
		<circle id="Ellipse_18-5" class="st0" cx="8450.5" cy="-5384.8" r="5"/>
		<circle id="Ellipse_19-5" class="st0" cx="8421.5" cy="-5384.8" r="5"/>
		<circle id="Ellipse_20-5" class="st0" cx="8391.5" cy="-5384.8" r="5"/>
		<circle id="Ellipse_21-5" class="st0" cx="8362.5" cy="-5384.8" r="5"/>
		<circle id="Ellipse_22-5" class="st0" cx="8332.5" cy="-5384.8" r="5"/>
		<circle id="Ellipse_23-5" class="st0" cx="8302.5" cy="-5384.8" r="5"/>
		<circle id="Ellipse_24-5" class="st0" cx="8273.5" cy="-5384.8" r="5"/>
		<circle id="Ellipse_25-5" class="st0" cx="8243.5" cy="-5384.8" r="5"/>
	</g>
	<g id="Group_8" transform="translate(0 130)">
		<circle id="Ellipse_14-6" class="st0" cx="8569.5" cy="-5384.8" r="5"/>
		<circle id="Ellipse_15-6" class="st0" cx="8539.5" cy="-5384.8" r="5"/>
		<circle id="Ellipse_16-6" class="st0" cx="8510.5" cy="-5384.8" r="5"/>
		<circle id="Ellipse_17-6" class="st0" cx="8480.5" cy="-5384.8" r="5"/>
		<circle id="Ellipse_18-6" class="st0" cx="8450.5" cy="-5384.8" r="5"/>
		<circle id="Ellipse_19-6" class="st0" cx="8421.5" cy="-5384.8" r="5"/>
		<circle id="Ellipse_20-6" class="st0" cx="8391.5" cy="-5384.8" r="5"/>
		<circle id="Ellipse_21-6" class="st0" cx="8362.5" cy="-5384.8" r="5"/>
		<circle id="Ellipse_22-6" class="st0" cx="8332.5" cy="-5384.8" r="5"/>
		<circle id="Ellipse_23-6" class="st0" cx="8302.5" cy="-5384.8" r="5"/>
		<circle id="Ellipse_24-6" class="st0" cx="8273.5" cy="-5384.8" r="5"/>
		<circle id="Ellipse_25-6" class="st0" cx="8243.5" cy="-5384.8" r="5"/>
	</g>
	<g id="Group_9" transform="translate(0 156)">
		<circle id="Ellipse_14-7" class="st0" cx="8569.5" cy="-5384.8" r="5"/>
		<circle id="Ellipse_15-7" class="st0" cx="8539.5" cy="-5384.8" r="5"/>
		<circle id="Ellipse_16-7" class="st0" cx="8510.5" cy="-5384.8" r="5"/>
		<circle id="Ellipse_17-7" class="st0" cx="8480.5" cy="-5384.8" r="5"/>
		<circle id="Ellipse_18-7" class="st0" cx="8450.5" cy="-5384.8" r="5"/>
		<circle id="Ellipse_19-7" class="st0" cx="8421.5" cy="-5384.8" r="5"/>
		<circle id="Ellipse_20-7" class="st0" cx="8391.5" cy="-5384.8" r="5"/>
		<circle id="Ellipse_21-7" class="st0" cx="8362.5" cy="-5384.8" r="5"/>
		<circle id="Ellipse_22-7" class="st0" cx="8332.5" cy="-5384.8" r="5"/>
		<circle id="Ellipse_23-7" class="st0" cx="8302.5" cy="-5384.8" r="5"/>
		<circle id="Ellipse_24-7" class="st0" cx="8273.5" cy="-5384.8" r="5"/>
		<circle id="Ellipse_25-7" class="st0" cx="8243.5" cy="-5384.8" r="5"/>
	</g>
</g>
<line id="Line_19" class="st1" x1="0" y1="475.7" x2="457" y2="475.7"/>
<g id="humaaan-2" transform="translate(-8165.298 5399.482)">
	<g id="Head_Front" transform="translate(16.099 -8.671)">
		<g id="Head" transform="translate(152.324 47.072)">
			<path id="Head-2" class="st2" d="M8238.5-5299.4l10.2-47.7c-5.7-6.7-9.6-14.9-8.9-24.1c1.9-26.5,38.8-20.7,45.9-7.3
				c7.2,13.4,6.3,47.3-3,49.7c-3.7,1-11.6-1.4-19.6-6.2l5,35.6H8238.5z"/>
		</g>
		<path id="hair" class="st3" d="M8421.1-5346.8c-3.9-0.6-14.5-1.1-16.4-1.1c-1.2,0-2.6,0.3-3.3-0.9c-0.6-0.9-0.4-2.5-0.6-3.6
			c-0.2-1.3-0.5-2.5-0.8-3.7c-0.8-3.5-2.2-6.9-4-10c-3.3-5.9-8.4-10.6-14.6-13.2c-6.9-3-14.8-3.7-22.2-3.1c-8,0.6-15.2,3.3-22.7,5.8
			c-7.1,2.5-14.7,3.2-22.2,2.1c-7.6-1.2-13.3-5.3-19.6-9.1c-6.5-4-14-6.6-21.7-6c-7.2,0.6-13.8,3.5-19.8,7.5
			c-5.6,3.7-10.2,8.2-12.8,14.5c-2.8,6.8-2.8,14.2,1.8,20.2c6.7,8.7,19,10.9,29.3,10.7c5.9-0.1,11.8-1.2,17.4-3.2
			c7.5-2.6,14-7.1,21-10.7c3.3-1.7,6.7-3.1,10.2-4.1c3.5-1,6.9-1.4,10,0.7c3.3,2.2,6.3,4.4,10.1,5.8c3.6,1.4,7.5,2,11.4,2
			c7.5-0.1,15-2.4,22.3-4c6-1.3,12.3-2.6,18.4-1.3c2.5,0.5,6.2,1.6,7.2,4.2c-15.4,2.8-21.5,21.9-17.1,35.9
			c2.3,7.6,16.5,16.4,21.9,12.4c3.5-2.5,1.4-5.8,0-8c-2.6-4.2-3.5-9.5,1.3-12.5c4.2-2.5,8.6,3.4,8.6,3.4c1.1-0.1,11.1-5.7,17.9-13.9
			c6.7,0.4,7.8-4,6.1-7.7C8436.6-5341.4,8426.5-5346,8421.1-5346.8z"/>
	</g>
	<g id="Bottom_Skinny_Jeans_1" transform="translate(8.955 231.64)">
		<path id="Leg" class="st2" d="M8390.5-5389.8l92,153.9l69,130.1h14.9l-115.6-284H8390.5z"/>
		<g id="Right_Shoe" transform="translate(300.646 246.504)">
			<path id="shoe" class="st4" d="M8245.3-5360c-1.3-0.4-2.7,0.3-3.1,1.6c0,0,0,0.1,0,0.1l-2.4,8.3c0.2,3.3,0.5,6.5,1.1,9.8h69.8
				c0,0,2.7-9-3.1-9.7c-5.9-0.7-9.7-1.3-9.7-1.3l-32.5-14.5c-0.6-0.3-1.4,0-1.6,0.6c0,0,0,0,0,0l-2.1,5.1c0,0-5.4,2.5-8.8,2.5
				L8245.3-5360z"/>
		</g>
		<path id="Pant" class="st5" d="M8532.4-5126.7l28.7-8.7c0,0-18.8-56.3-46.2-123.9s-58.7-130.5-58.7-130.5h-80.9
			c0,0,34.9,79.6,74,144.6S8532.4-5126.7,8532.4-5126.7z"/>
		<path id="Leg-2" class="st2" d="M8384.5-5389.8c-8.7,54.1-25.4,123.2-27,125.3c-1.1,1.4-39,14.1-113.8,38.2l3.2,13.1
			c89.2-12.9,136.2-22.9,141.1-30c7.2-10.7,43.2-94.8,57.1-146.6H8384.5z"/>
		<path id="Pant-2" class="st5" d="M8270-5237.7l5.7,21.1c66.7,5.9,107.6,1.6,122.7-12.7c15-14.3,32.2-67.8,51.4-160.5h-77.2
			c-12.2,75.9-19,115.5-20.5,118.6C8350.7-5268,8323.3-5256.8,8270-5237.7z"/>
		<g id="Left_Shoe" transform="matrix(0.174, 0.985, -0.985, 0.174, 20.354, 153.595)">
			<path id="shoe-2" class="st6" d="M-3869-9043.5c-1-0.4-2.2,0.2-2.5,1.3c0,0,0,0.1,0,0.1l-1.9,6.7c0.1,2.6,0.4,5.3,0.9,7.9h56.4
				c0,0,2.2-7.3-2.5-7.8c-4.7-0.6-7.9-1-7.9-1l-26.2-11.7c-0.5-0.2-1.1,0-1.3,0.5c0,0,0,0,0,0l-1.7,4.1c0,0-4.4,2-7.1,2
				L-3869-9043.5z"/>
		</g>
	</g>
	<g id="Body_Long_Sleeve_1" transform="translate(69.552 101.575)">
		<path id="Skin" class="st2" d="M8240-5168.1c-1.4-0.9-2.9-4.1,0.8-6.6c9.1-6.2,22.2-17.2,24-20.8c3.6-7.4,16-79.1,16-79.1
			l25.9,0.1c0,0-24,77.4-25.9,82.1c-2.9,7.1,3.2,17.9,5.8,23.7c-4.1,1.8-6-0.5-8.1-2.8c-2.2-2.5-4.6-5-10.1-2.4
			c-7,3.3-12.9,8.5-19.8,8.5C8245.5-5165.5,8242.6-5166.4,8240-5168.1z M8461.3-5237.7l-36.5-21.5l11.7-20.2l35.1,34.2
			c10.2,4.4,18.6,9.2,25.1,14.4c1.5,1.8,3.1,5.2-3.8,3.6c-6.9-1.5-14.2-2.8-15.5-0.6c-1.3,2.2,2.5,5.7,0.1,8.6
			c-0.2,0.2-0.4,0.4-0.7,0.4C8474.5-5218.7,8469.4-5225,8461.3-5237.7z"/>
		<path id="Coat_Back" class="st7" d="M8354.3-5383.2l10.7-1.8c18.4,46.1,50.6,87.9,96.6,125.5l-34.7,42.2
			C8381-5270.9,8352.7-5326.2,8354.3-5383.2z"/>
		<path id="Shirt" class="st8" d="M8307.6-5246.6h95.4c0,0-33.1-80.6-33.1-136.9l-28.8-4.3
			C8318.5-5351.4,8312.1-5306.7,8307.6-5246.6z"/>
		<path id="Coat_Front" class="st3" d="M8264.3-5207.7c10.4-117.7,76.2-182.1,76.2-182.1l0,0l0,0h1.9c3.4,0.1,10.3,0.4,10.3,0.4
			l7,19.9c1.1,36.3,12.9,146.5,12.9,146.5h-62.4c0.1,5,0.3,10.2,0.7,15.4H8264.3z"/>
		<path id="Shade" class="st9" d="M8327.5-5222.6h-17.4c-0.4-20.5,1.2-41.1,4.7-61.3c0.8,11.5,2.2,22.9,4.2,34.3
			C8321.2-5237.3,8324.1-5228.2,8327.5-5222.6L8327.5-5222.6z"/>
		<path id="Light" class="st4" d="M8323.9-5261l30.8-14.3v14.3H8323.9z"/>
	</g>
</g>
<line id="Line_18" class="st1" x1="387" y1="271.7" x2="525" y2="537.7"/>
<line id="Line_26" class="st1" x1="387" y1="271.7" x2="525" y2="537.7"/>
</svg>
