<svg id="Component_63_1" data-name="Component 63 – 1" xmlns="http://www.w3.org/2000/svg" width="642.702" height="695" viewBox="0 0 642.702 695">
	<g id="Group_337" data-name="Group 337" transform="translate(107.5 529)">
	  <g id="Group_5" data-name="Group 5" transform="translate(0 52)">
		<circle id="Ellipse_14" data-name="Ellipse 14" cx="5" cy="5" r="5" transform="translate(326)" fill="#ffd500"/>
		<circle id="Ellipse_15" data-name="Ellipse 15" cx="5" cy="5" r="5" transform="translate(296)" fill="#ffd500"/>
		<circle id="Ellipse_16" data-name="Ellipse 16" cx="5" cy="5" r="5" transform="translate(267)" fill="#ffd500"/>
		<circle id="Ellipse_17" data-name="Ellipse 17" cx="5" cy="5" r="5" transform="translate(237)" fill="#ffd500"/>
		<circle id="Ellipse_18" data-name="Ellipse 18" cx="5" cy="5" r="5" transform="translate(207)" fill="#ffd500"/>
		<circle id="Ellipse_19" data-name="Ellipse 19" cx="5" cy="5" r="5" transform="translate(178)" fill="#ffd500"/>
		<circle id="Ellipse_20" data-name="Ellipse 20" cx="5" cy="5" r="5" transform="translate(148)" fill="#ffd500"/>
		<circle id="Ellipse_21" data-name="Ellipse 21" cx="5" cy="5" r="5" transform="translate(119)" fill="#ffd500"/>
		<circle id="Ellipse_22" data-name="Ellipse 22" cx="5" cy="5" r="5" transform="translate(89)" fill="#ffd500"/>
		<circle id="Ellipse_23" data-name="Ellipse 23" cx="5" cy="5" r="5" transform="translate(59)" fill="#ffd500"/>
		<circle id="Ellipse_24" data-name="Ellipse 24" cx="5" cy="5" r="5" transform="translate(30)" fill="#ffd500"/>
		<circle id="Ellipse_25" data-name="Ellipse 25" cx="5" cy="5" r="5" fill="#ffd500"/>
	  </g>
	  <g id="Group_6" data-name="Group 6" transform="translate(0 78)">
		<circle id="Ellipse_14-2" data-name="Ellipse 14" cx="5" cy="5" r="5" transform="translate(326)" fill="#ffd500"/>
		<circle id="Ellipse_15-2" data-name="Ellipse 15" cx="5" cy="5" r="5" transform="translate(296)" fill="#ffd500"/>
		<circle id="Ellipse_16-2" data-name="Ellipse 16" cx="5" cy="5" r="5" transform="translate(267)" fill="#ffd500"/>
		<circle id="Ellipse_17-2" data-name="Ellipse 17" cx="5" cy="5" r="5" transform="translate(237)" fill="#ffd500"/>
		<circle id="Ellipse_18-2" data-name="Ellipse 18" cx="5" cy="5" r="5" transform="translate(207)" fill="#ffd500"/>
		<circle id="Ellipse_19-2" data-name="Ellipse 19" cx="5" cy="5" r="5" transform="translate(178)" fill="#ffd500"/>
		<circle id="Ellipse_20-2" data-name="Ellipse 20" cx="5" cy="5" r="5" transform="translate(148)" fill="#ffd500"/>
		<circle id="Ellipse_21-2" data-name="Ellipse 21" cx="5" cy="5" r="5" transform="translate(119)" fill="#ffd500"/>
		<circle id="Ellipse_22-2" data-name="Ellipse 22" cx="5" cy="5" r="5" transform="translate(89)" fill="#ffd500"/>
		<circle id="Ellipse_23-2" data-name="Ellipse 23" cx="5" cy="5" r="5" transform="translate(59)" fill="#ffd500"/>
		<circle id="Ellipse_24-2" data-name="Ellipse 24" cx="5" cy="5" r="5" transform="translate(30)" fill="#ffd500"/>
		<circle id="Ellipse_25-2" data-name="Ellipse 25" cx="5" cy="5" r="5" fill="#ffd500"/>
	  </g>
	  <g id="Group_7" data-name="Group 7" transform="translate(0 104)">
		<circle id="Ellipse_14-3" data-name="Ellipse 14" cx="5" cy="5" r="5" transform="translate(326)" fill="#ffd500"/>
		<circle id="Ellipse_15-3" data-name="Ellipse 15" cx="5" cy="5" r="5" transform="translate(296)" fill="#ffd500"/>
		<circle id="Ellipse_16-3" data-name="Ellipse 16" cx="5" cy="5" r="5" transform="translate(267)" fill="#ffd500"/>
		<circle id="Ellipse_17-3" data-name="Ellipse 17" cx="5" cy="5" r="5" transform="translate(237)" fill="#ffd500"/>
		<circle id="Ellipse_18-3" data-name="Ellipse 18" cx="5" cy="5" r="5" transform="translate(207)" fill="#ffd500"/>
		<circle id="Ellipse_19-3" data-name="Ellipse 19" cx="5" cy="5" r="5" transform="translate(178)" fill="#ffd500"/>
		<circle id="Ellipse_20-3" data-name="Ellipse 20" cx="5" cy="5" r="5" transform="translate(148)" fill="#ffd500"/>
		<circle id="Ellipse_21-3" data-name="Ellipse 21" cx="5" cy="5" r="5" transform="translate(119)" fill="#ffd500"/>
		<circle id="Ellipse_22-3" data-name="Ellipse 22" cx="5" cy="5" r="5" transform="translate(89)" fill="#ffd500"/>
		<circle id="Ellipse_23-3" data-name="Ellipse 23" cx="5" cy="5" r="5" transform="translate(59)" fill="#ffd500"/>
		<circle id="Ellipse_24-3" data-name="Ellipse 24" cx="5" cy="5" r="5" transform="translate(30)" fill="#ffd500"/>
		<circle id="Ellipse_25-3" data-name="Ellipse 25" cx="5" cy="5" r="5" fill="#ffd500"/>
	  </g>
	  <g id="Group_8" data-name="Group 8" transform="translate(0 130)">
		<circle id="Ellipse_14-4" data-name="Ellipse 14" cx="5" cy="5" r="5" transform="translate(326)" fill="#ffd500"/>
		<circle id="Ellipse_15-4" data-name="Ellipse 15" cx="5" cy="5" r="5" transform="translate(296)" fill="#ffd500"/>
		<circle id="Ellipse_16-4" data-name="Ellipse 16" cx="5" cy="5" r="5" transform="translate(267)" fill="#ffd500"/>
		<circle id="Ellipse_17-4" data-name="Ellipse 17" cx="5" cy="5" r="5" transform="translate(237)" fill="#ffd500"/>
		<circle id="Ellipse_18-4" data-name="Ellipse 18" cx="5" cy="5" r="5" transform="translate(207)" fill="#ffd500"/>
		<circle id="Ellipse_19-4" data-name="Ellipse 19" cx="5" cy="5" r="5" transform="translate(178)" fill="#ffd500"/>
		<circle id="Ellipse_20-4" data-name="Ellipse 20" cx="5" cy="5" r="5" transform="translate(148)" fill="#ffd500"/>
		<circle id="Ellipse_21-4" data-name="Ellipse 21" cx="5" cy="5" r="5" transform="translate(119)" fill="#ffd500"/>
		<circle id="Ellipse_22-4" data-name="Ellipse 22" cx="5" cy="5" r="5" transform="translate(89)" fill="#ffd500"/>
		<circle id="Ellipse_23-4" data-name="Ellipse 23" cx="5" cy="5" r="5" transform="translate(59)" fill="#ffd500"/>
		<circle id="Ellipse_24-4" data-name="Ellipse 24" cx="5" cy="5" r="5" transform="translate(30)" fill="#ffd500"/>
		<circle id="Ellipse_25-4" data-name="Ellipse 25" cx="5" cy="5" r="5" fill="#ffd500"/>
	  </g>
	  <g id="Group_9" data-name="Group 9" transform="translate(0 156)">
		<circle id="Ellipse_14-5" data-name="Ellipse 14" cx="5" cy="5" r="5" transform="translate(326)" fill="#ffd500"/>
		<circle id="Ellipse_15-5" data-name="Ellipse 15" cx="5" cy="5" r="5" transform="translate(296)" fill="#ffd500"/>
		<circle id="Ellipse_16-5" data-name="Ellipse 16" cx="5" cy="5" r="5" transform="translate(267)" fill="#ffd500"/>
		<circle id="Ellipse_17-5" data-name="Ellipse 17" cx="5" cy="5" r="5" transform="translate(237)" fill="#ffd500"/>
		<circle id="Ellipse_18-5" data-name="Ellipse 18" cx="5" cy="5" r="5" transform="translate(207)" fill="#ffd500"/>
		<circle id="Ellipse_19-5" data-name="Ellipse 19" cx="5" cy="5" r="5" transform="translate(178)" fill="#ffd500"/>
		<circle id="Ellipse_20-5" data-name="Ellipse 20" cx="5" cy="5" r="5" transform="translate(148)" fill="#ffd500"/>
		<circle id="Ellipse_21-5" data-name="Ellipse 21" cx="5" cy="5" r="5" transform="translate(119)" fill="#ffd500"/>
		<circle id="Ellipse_22-5" data-name="Ellipse 22" cx="5" cy="5" r="5" transform="translate(89)" fill="#ffd500"/>
		<circle id="Ellipse_23-5" data-name="Ellipse 23" cx="5" cy="5" r="5" transform="translate(59)" fill="#ffd500"/>
		<circle id="Ellipse_24-5" data-name="Ellipse 24" cx="5" cy="5" r="5" transform="translate(30)" fill="#ffd500"/>
		<circle id="Ellipse_25-5" data-name="Ellipse 25" cx="5" cy="5" r="5" fill="#ffd500"/>
	  </g>
	</g>
	<g id="Group_340" data-name="Group 340" transform="translate(-899.5 -83)">
	  <g id="Group_339" data-name="Group 339">
		<g id="Humaaans" transform="translate(1154.806 152.755)">
		  <g id="Humaaan" transform="translate(0 101)">
			<g id="Head_Front" data-name="Head/Front" transform="translate(120.192 54.773) rotate(-8)">
			  <g id="Head" transform="translate(22.389 2.883)">
				<path id="Head-2" data-name="Head" d="M0,93.154,10.592,44.012c-5.906-6.9-9.9-15.361-9.237-24.838C3.28-8.135,41.469-2.127,48.9,11.656S55.443,60.4,45.843,62.864c-3.829.982-11.985-1.424-20.287-6.4l5.211,36.695Z" transform="translate(0 0)" fill="#dedbd9" stroke="#000" stroke-width="2"/>
			  </g>
			  <g id="Hijab">
				<path id="Front" d="M22.735,2.567c-.7-.419-2.179-1.3-2.926-1.622C19.632.868,18.395-.011,18.361,0c-.937.315-3.65,1.477-3.883,2.48-.036.076-.072.147-.106.21-.384.7-.737,1.409-1.074,2.131-.738,1.584-1.376,3.24-1.985,4.883C10.128,12.9,9.1,16.177,8.15,19.459c-.964,3.34-1.783,6.72-2.7,10.074-1.318,4.827-3.006,9.535-4.315,14.359A28.189,28.189,0,0,0,.054,53.26c0,.038,0,.076.007.114,0,.016,0,.032,0,.047q.056.731.162,1.466c.062.419.124.84.191,1.26,1.2-2.374,2.109-4.99,3.078-7.473.095-.243.185-.488.274-.734q.469-.755.953-1.5c2.032-3.14,4.071-6.269,6.019-9.467a170.487,170.487,0,0,1,11.129-16.9c1.227-1.559,2.482-3.095,3.693-4.667q1.034-1.342,2.01-2.73c.464-.662,2.483-2.969,1.752-4.356A37.588,37.588,0,0,0,22.735,2.567Z" transform="translate(41.618 2.883)" fill="#2c2c2c" stroke="#000" stroke-width="2"/>
				<path id="Turban" d="M61.65,3.944c.685.229.352-1.19-.312-1.69C58.263-.061,46.506-.9,36.275,1.214a49.741,49.741,0,0,0-20.3,9.473C11.04,14.772,7.646,21.322,5.9,27.649a49.072,49.072,0,0,0-1.09,20.384c.225,1.5.707,2.923.976,4.388a33.845,33.845,0,0,0,1,4.843c.331.983.892,1.946,1.174,2.934a6.712,6.712,0,0,1-.109,3.318,36.109,36.109,0,0,1-1.531,5.52C5.3,71.715,4.075,74.226,3.305,77.008c-1.025,3.7-5.311,15.747-2.179,19.03H60.761c-1.5-4.077-6.009-8.876-6.922-13.241-.537-2.571-.793-8.186-.849-8.391-1.344-9.221-3.968-13.625-5.611-15.223s-3.832-2.09-3.945-3.476c-.466-5.733,1.824-11.227,3.5-16.578,2-6.377,3.468-12.913,5.532-19.269C53.383,17.046,58.091,2.753,61.65,3.944Z" transform="translate(0 0)" fill="#191919" stroke="#000" stroke-width="2"/>
				<path id="Shade" d="M7.146,50.707l.9-1.092c12.316,3.841,10.943,11.769,26.455,19.8l-1.3.782C19.626,64.614,16.451,52.645,7.146,50.707Zm9.968-42.6.985-.079C20,22.4,20.559,30.6,30.474,46.32l-1.055.32C19.214,32.957,17.6,21.788,17.115,8.108ZM0,18.752l.881-.423c4.19,10.123,6.1,16.1,17.8,24.29l-.9.631C6.164,36.7,2.782,28.879,0,18.752ZM27.7,20.6C25.637,11.44,27.472,2.818,29.664,0h1.387C28.8,7.1,28.319,10.895,28.8,20.6Z" transform="translate(9.691 10.54)" fill="rgba(0,0,0,0.2)"/>
			  </g>
			</g>
			<g id="Bottom_Skinny_Jeans_1" data-name="Bottom/Skinny Jeans 1" transform="translate(36 247.509)">
			  <path id="Skin" d="M75.31,192.5c-1.319-17.574-3.772-78.5-1.318-106.839.738-8.525,1.517-16.758,2.3-24.446C52.682,105.9,15.181,169.631,15.181,169.631L0,162.3s17.882-62.275,29.326-87.93C42.389,45.086,54.638,20.009,59.792,11.176,66.6-.492,77.648,1.057,85.43,6.833c9.465-13.568,33.122-4.586,33.107,6.646-.038,29.491-25.5,169.5-26.828,178.336a9.615,9.615,0,0,1-9.4,7.86C78.852,199.676,75.688,197.537,75.31,192.5Z" transform="translate(203.104 18.031)" fill="#dedbd9" stroke="#000" stroke-width="2"/>
			  <path id="Leg_Front" data-name="Leg Front" d="M222.776,41.7c0,36.981-15.336,123.911-15.346,132.054l-37.15-1.324S180.021,59.058,178.5,58.29c-2.288-1.152-93.785,13.386-121.227,14.483C17.7,74.356,1.328,48.7,0,0H76.65s98.314,12.4,129.232,17.255C219.119,19.332,222.776,31.51,222.776,41.7Z" transform="translate(100.183 0)" fill="#ccc" stroke="#000" stroke-width="2"/>
			  <g id="Left_Shoe" data-name="Left Shoe" transform="translate(204.81 162.774) rotate(20)">
				<path id="shoe" d="M4.957,5.541A2.216,2.216,0,0,0,2.115,7.035L0,14.486a71.182,71.182,0,0,0,1,8.747H63.493s2.436-8.053-2.812-8.7-8.72-1.16-8.72-1.16L22.914.428a1.108,1.108,0,0,0-1.476.59L19.571,5.547s-4.859,2.267-7.9,2.267Z" transform="translate(0 -0.332)" stroke="#000" stroke-miterlimit="10" stroke-width="2"/>
			  </g>
			  <g id="Right_Shoe" data-name="Right Shoe" transform="translate(274.186 181.251)">
				<path id="shoe-2" data-name="shoe" d="M5.9,6.882A2.614,2.614,0,0,0,2.516,8.761L0,18.13a94.4,94.4,0,0,0,1.188,11H75.537S78.435,19,72.191,18.2s-10.374-1.458-10.374-1.458L27.26.453a1.293,1.293,0,0,0-1.755.742l-2.221,5.7S17.5,9.741,13.889,9.741Z" transform="translate(0 -0.332)" stroke="#000" stroke-miterlimit="10" stroke-width="2"/>
			  </g>
			  <rect id="Base" width="69.865" height="9.754" rx="4" transform="translate(275.504 210.049)"/>
			  <path id="Seat" d="M10,0H157.412a10,10,0,0,1,10,10V82.208a0,0,0,0,1,0,0H4a4,4,0,0,1-4-4V10A10,10,0,0,1,10,0Z" transform="translate(83.047 8.011)" stroke="#000" stroke-width="2"/>
			  <path id="Wheel_Stuff" data-name="Wheel Stuff" d="M0,0H2.892A13.422,13.422,0,0,1,15.9,11.676L44.819,197.857H30.733" transform="translate(237.276 8.011)" stroke="#000" stroke-width="2"/>
			  <ellipse id="Front_Wheel" data-name="Front Wheel" cx="23.728" cy="25.081" rx="23.728" ry="25.081" transform="translate(251.777 183.575)"/>
			  <g id="Wheel" transform="translate(0 19.158)">
				<path id="Wheel-2" data-name="Wheel" d="M100.183,211.791a94.937,94.937,0,0,1-39-8.322,98.62,98.62,0,0,1-17.018-9.764,102.346,102.346,0,0,1-14.827-12.931A105.618,105.618,0,0,1,17.11,165.1a107.944,107.944,0,0,1-9.237-17.988,111.841,111.841,0,0,1,0-82.439A107.939,107.939,0,0,1,17.11,46.688,105.617,105.617,0,0,1,29.343,31.016,102.344,102.344,0,0,1,44.17,18.085,98.619,98.619,0,0,1,61.187,8.322a95.529,95.529,0,0,1,77.992,0A98.623,98.623,0,0,1,156.2,18.085a102.343,102.343,0,0,1,14.827,12.931,105.618,105.618,0,0,1,12.233,15.672,107.94,107.94,0,0,1,9.237,17.988,111.841,111.841,0,0,1,0,82.439,107.942,107.942,0,0,1-9.237,17.988,105.617,105.617,0,0,1-12.233,15.672A102.344,102.344,0,0,1,156.2,193.706a98.622,98.622,0,0,1-17.018,9.764A94.94,94.94,0,0,1,100.183,211.791Zm0-192.284A77.449,77.449,0,0,0,68.371,26.3a80.454,80.454,0,0,0-13.883,7.965,83.5,83.5,0,0,0-12.1,10.549,86.164,86.164,0,0,0-9.98,12.785,88.057,88.057,0,0,0-7.535,14.674,91.24,91.24,0,0,0,0,67.253A88.056,88.056,0,0,0,32.413,154.2a86.161,86.161,0,0,0,9.98,12.785,83.494,83.494,0,0,0,12.1,10.549,80.45,80.45,0,0,0,13.883,7.965,77.932,77.932,0,0,0,63.625,0,80.453,80.453,0,0,0,13.883-7.965,83.494,83.494,0,0,0,12.1-10.549,86.163,86.163,0,0,0,9.98-12.785,88.056,88.056,0,0,0,7.535-14.674,91.24,91.24,0,0,0,0-67.253,88.054,88.054,0,0,0-7.535-14.674,86.163,86.163,0,0,0-9.98-12.785,83.491,83.491,0,0,0-12.1-10.549A80.453,80.453,0,0,0,132,26.3,77.452,77.452,0,0,0,100.183,19.508Z" transform="translate(0 0)"/>
				<rect id="Wheel_Stuff-2" data-name="Wheel Stuff" width="10.546" height="183.924" transform="translate(94.911 13.934)"/>
				<path id="Wheel_Stuff-3" data-name="Wheel Stuff" d="M2.558-.006,7.674-.018a2.544,2.544,0,0,1,2.552,2.552L9.852,166.249a2.572,2.572,0,0,1-2.564,2.564l-5.116.012A2.544,2.544,0,0,1-.38,166.272L-.006,2.558A2.572,2.572,0,0,1,2.558-.006Z" transform="translate(157.974 36.928) rotate(45)"/>
				<rect id="Wheel_Stuff-4" data-name="Wheel Stuff" width="11.147" height="174.003" rx="2" transform="translate(187.185 100.322) rotate(90)"/>
				<path id="Wheel_Stuff-5" data-name="Wheel Stuff" d="M2.558.006,7.674.018a2.572,2.572,0,0,1,2.564,2.564L10.612,166.3a2.544,2.544,0,0,1-2.552,2.552l-5.116-.012A2.572,2.572,0,0,1,.38,166.272L.006,2.558A2.544,2.544,0,0,1,2.558.006Z" transform="translate(165.431 166.981) rotate(135)"/>
			  </g>
			</g>
			<g id="Body_Long_Sleeve_1" data-name="Body/Long Sleeve 1" transform="translate(30.194 136.058) rotate(-8)">
			  <path id="Skin-2" data-name="Skin" d="M1.573,163.333c-1.431-.879-3-4.185.788-6.769,9.433-6.438,23.025-17.706,24.862-21.415C30.979,127.562,63.85,29.924,63.85,29.924l28.072.106S45.75,133.458,43.772,138.336c-2.966,7.317,3.311,18.462,5.995,24.451-4.231,1.885-6.2-.521-8.349-2.926-2.294-2.566-4.8-5.13-10.491-2.493-7.282,3.372-13.3,8.725-20.479,8.725A16.706,16.706,0,0,1,1.573,163.333ZM222.849,18.262l50.615-6.873Q288.651,2.981,301.407,0c2.393-.069,6.2.8.528,5.5S290.51,15.42,291.521,17.932s6.284,1.577,7.159,5.44q.874,3.862-25.68,1.255L231.93,40.836Z" transform="translate(0 65.081)" fill="#dedbd9" stroke="#000" stroke-width="2"/>
			  <path id="Clothes_Back" data-name="Clothes Back" d="M0,.455,22.022-.009c9.641,48.091,41.7,76.2,106.55,60.058l14.208,61.774C82.007,135.107,25.96,115.328,9.11,49.972,4.748,33.054.927,15.384,0,.455Z" transform="matrix(0.996, 0.087, -0.087, 0.996, 140.78, 5.927)" fill="#e5bf00" stroke="#000" stroke-width="2"/>
			  <path id="Clothes" d="M0,187.585Q22.889,66.352,96.625,0h2.181l.017.02,33.3,7.592c0,57.015,18.245,93.391,27.6,135.31H69.791c-1.267,14.484-2.045,29.374-2.45,44.663Z" transform="translate(31.073)" fill="#ffd500" stroke="#000" stroke-width="2"/>
			  <path id="Shade-2" data-name="Shade" d="M18.279,83.457H0C2.745,52.068,7.587,24.769,14.8,0c-.987,16.533-1.321,31.476-.99,44.414.421,16.469,1.924,29.6,4.47,39.042Z" transform="translate(100.864 59.465)" fill="rgba(0,0,0,0.1)" stroke="#000" stroke-width="2"/>
			</g>
		  </g>
		</g>
	  </g>
	</g>
	<line id="Line_21" data-name="Line 21" y1="17.714" x2="20" transform="matrix(0.848, 0.53, -0.53, 0.848, 45.213, 261)" fill="none" stroke="#000" stroke-width="2"/>
	<line id="Line_22" data-name="Line 22" x2="20" y2="17.714" transform="matrix(0.848, 0.53, -0.53, 0.848, 45.213, 261)" fill="none" stroke="#000" stroke-width="2"/>
	<line id="Line_21-2" data-name="Line 21" y1="17.714" x2="20" transform="matrix(0.848, 0.53, -0.53, 0.848, 489.213, 113)" fill="none" stroke="#000" stroke-width="2"/>
	<line id="Line_22-2" data-name="Line 22" x2="20" y2="17.714" transform="matrix(0.848, 0.53, -0.53, 0.848, 489.213, 113)" fill="none" stroke="#000" stroke-width="2"/>
	<line id="Line_21-3" data-name="Line 21" y1="17.714" x2="20" transform="matrix(0.848, 0.53, -0.53, 0.848, 253.213, 361)" fill="none" stroke="#000" stroke-width="2"/>
	<line id="Line_22-3" data-name="Line 22" x2="20" y2="17.714" transform="matrix(0.848, 0.53, -0.53, 0.848, 253.213, 361)" fill="none" stroke="#000" stroke-width="2"/>
	<g id="Ellipse_9" data-name="Ellipse 9" transform="translate(92.5 455.379)" fill="#ffd500" stroke="#ffd500" stroke-width="2">
	  <circle cx="7.5" cy="7.5" r="7.5" stroke="none"/>
	  <circle cx="7.5" cy="7.5" r="6.5" fill="none"/>
	</g>
	<line id="Line_19" data-name="Line 19" x2="457" transform="translate(0 545)" fill="none" stroke="#000" stroke-width="2"/>
	<circle id="Oval" cx="41" cy="41" r="41" transform="translate(507.5)" fill="#fff"/>
	<path id="Polygon" d="M24,48,48,24,24,0,0,24Z" transform="translate(210.5 71)" fill="rgba(255,213,0,0.98)"/>
	<circle id="Ellipse_48" data-name="Ellipse 48" cx="7.5" cy="7.5" r="7.5" transform="translate(145.5 222.379)" fill="#fff"/>
  </svg>
  