<svg xmlns="http://www.w3.org/2000/svg" xmlns:xlink="http://www.w3.org/1999/xlink" width="697.294" height="595.732" viewBox="0 0 697.294 595.732">
	<defs>
	  <clipPath id="clip-path">
		<rect id="Mask" width="319" height="504" fill="none" stroke="#000" stroke-miterlimit="10" stroke-width="2"/>
	  </clipPath>
	</defs>
	<g id="Group_336" data-name="Group 336" transform="translate(459.294 280.208)">
	  <g id="Group_3" data-name="Group 3">
		<circle id="Ellipse_14" data-name="Ellipse 14" cx="3.5" cy="3.5" r="3.5" transform="translate(231 -0.208)"/>
		<circle id="Ellipse_15" data-name="Ellipse 15" cx="3.5" cy="3.5" r="3.5" transform="translate(210 -0.208)"/>
		<circle id="Ellipse_16" data-name="Ellipse 16" cx="3.5" cy="3.5" r="3.5" transform="translate(189 -0.208)"/>
		<circle id="Ellipse_17" data-name="Ellipse 17" cx="3.5" cy="3.5" r="3.5" transform="translate(168 -0.208)"/>
		<circle id="Ellipse_18" data-name="Ellipse 18" cx="3.5" cy="3.5" r="3.5" transform="translate(147 -0.208)"/>
		<circle id="Ellipse_19" data-name="Ellipse 19" cx="3.5" cy="3.5" r="3.5" transform="translate(126 -0.208)"/>
		<circle id="Ellipse_20" data-name="Ellipse 20" cx="3.5" cy="3.5" r="3.5" transform="translate(105 -0.208)"/>
		<circle id="Ellipse_21" data-name="Ellipse 21" cx="3.5" cy="3.5" r="3.5" transform="translate(84 -0.208)"/>
		<circle id="Ellipse_22" data-name="Ellipse 22" cx="3.5" cy="3.5" r="3.5" transform="translate(63 -0.208)"/>
		<circle id="Ellipse_23" data-name="Ellipse 23" cx="3.5" cy="3.5" r="3.5" transform="translate(42 -0.208)"/>
		<circle id="Ellipse_24" data-name="Ellipse 24" cx="3.5" cy="3.5" r="3.5" transform="translate(21 -0.208)"/>
		<circle id="Ellipse_25" data-name="Ellipse 25" cx="3.5" cy="3.5" r="3.5" transform="translate(0 -0.208)"/>
	  </g>
	  <g id="Group_4" data-name="Group 4" transform="translate(0 18.417)">
		<circle id="Ellipse_14-2" data-name="Ellipse 14" cx="3.5" cy="3.5" r="3.5" transform="translate(231 0.375)"/>
		<circle id="Ellipse_15-2" data-name="Ellipse 15" cx="3.5" cy="3.5" r="3.5" transform="translate(210 0.375)"/>
		<circle id="Ellipse_16-2" data-name="Ellipse 16" cx="3.5" cy="3.5" r="3.5" transform="translate(189 0.375)"/>
		<circle id="Ellipse_17-2" data-name="Ellipse 17" cx="3.5" cy="3.5" r="3.5" transform="translate(168 0.375)"/>
		<circle id="Ellipse_18-2" data-name="Ellipse 18" cx="3.5" cy="3.5" r="3.5" transform="translate(147 0.375)"/>
		<circle id="Ellipse_19-2" data-name="Ellipse 19" cx="3.5" cy="3.5" r="3.5" transform="translate(126 0.375)"/>
		<circle id="Ellipse_20-2" data-name="Ellipse 20" cx="3.5" cy="3.5" r="3.5" transform="translate(105 0.375)"/>
		<circle id="Ellipse_21-2" data-name="Ellipse 21" cx="3.5" cy="3.5" r="3.5" transform="translate(84 0.375)"/>
		<circle id="Ellipse_22-2" data-name="Ellipse 22" cx="3.5" cy="3.5" r="3.5" transform="translate(63 0.375)"/>
		<circle id="Ellipse_23-2" data-name="Ellipse 23" cx="3.5" cy="3.5" r="3.5" transform="translate(42 0.375)"/>
		<circle id="Ellipse_24-2" data-name="Ellipse 24" cx="3.5" cy="3.5" r="3.5" transform="translate(21 0.375)"/>
		<circle id="Ellipse_25-2" data-name="Ellipse 25" cx="3.5" cy="3.5" r="3.5" transform="translate(0 0.375)"/>
	  </g>
	  <g id="Group_5" data-name="Group 5" transform="translate(0 36.833)">
		<circle id="Ellipse_14-3" data-name="Ellipse 14" cx="3.5" cy="3.5" r="3.5" transform="translate(231 -0.042)"/>
		<circle id="Ellipse_15-3" data-name="Ellipse 15" cx="3.5" cy="3.5" r="3.5" transform="translate(210 -0.042)"/>
		<circle id="Ellipse_16-3" data-name="Ellipse 16" cx="3.5" cy="3.5" r="3.5" transform="translate(189 -0.042)"/>
		<circle id="Ellipse_17-3" data-name="Ellipse 17" cx="3.5" cy="3.5" r="3.5" transform="translate(168 -0.042)"/>
		<circle id="Ellipse_18-3" data-name="Ellipse 18" cx="3.5" cy="3.5" r="3.5" transform="translate(147 -0.042)"/>
		<circle id="Ellipse_19-3" data-name="Ellipse 19" cx="3.5" cy="3.5" r="3.5" transform="translate(126 -0.042)"/>
		<circle id="Ellipse_20-3" data-name="Ellipse 20" cx="3.5" cy="3.5" r="3.5" transform="translate(105 -0.042)"/>
		<circle id="Ellipse_21-3" data-name="Ellipse 21" cx="3.5" cy="3.5" r="3.5" transform="translate(84 -0.042)"/>
		<circle id="Ellipse_22-3" data-name="Ellipse 22" cx="3.5" cy="3.5" r="3.5" transform="translate(63 -0.042)"/>
		<circle id="Ellipse_23-3" data-name="Ellipse 23" cx="3.5" cy="3.5" r="3.5" transform="translate(42 -0.042)"/>
		<circle id="Ellipse_24-3" data-name="Ellipse 24" cx="3.5" cy="3.5" r="3.5" transform="translate(21 -0.042)"/>
		<circle id="Ellipse_25-3" data-name="Ellipse 25" cx="3.5" cy="3.5" r="3.5" transform="translate(0 -0.042)"/>
	  </g>
	  <g id="Group_6" data-name="Group 6" transform="translate(0 55.25)">
		<ellipse id="Ellipse_14-4" data-name="Ellipse 14" cx="3.5" cy="4" rx="3.5" ry="4" transform="translate(231 -0.458)"/>
		<ellipse id="Ellipse_15-4" data-name="Ellipse 15" cx="3.5" cy="4" rx="3.5" ry="4" transform="translate(210 -0.458)"/>
		<ellipse id="Ellipse_16-4" data-name="Ellipse 16" cx="3.5" cy="4" rx="3.5" ry="4" transform="translate(189 -0.458)"/>
		<ellipse id="Ellipse_17-4" data-name="Ellipse 17" cx="3.5" cy="4" rx="3.5" ry="4" transform="translate(168 -0.458)"/>
		<ellipse id="Ellipse_18-4" data-name="Ellipse 18" cx="3.5" cy="4" rx="3.5" ry="4" transform="translate(147 -0.458)"/>
		<ellipse id="Ellipse_19-4" data-name="Ellipse 19" cx="3.5" cy="4" rx="3.5" ry="4" transform="translate(126 -0.458)"/>
		<ellipse id="Ellipse_20-4" data-name="Ellipse 20" cx="3.5" cy="4" rx="3.5" ry="4" transform="translate(105 -0.458)"/>
		<ellipse id="Ellipse_21-4" data-name="Ellipse 21" cx="3.5" cy="4" rx="3.5" ry="4" transform="translate(84 -0.458)"/>
		<ellipse id="Ellipse_22-4" data-name="Ellipse 22" cx="3.5" cy="4" rx="3.5" ry="4" transform="translate(63 -0.458)"/>
		<ellipse id="Ellipse_23-4" data-name="Ellipse 23" cx="3.5" cy="4" rx="3.5" ry="4" transform="translate(42 -0.458)"/>
		<ellipse id="Ellipse_24-4" data-name="Ellipse 24" cx="3.5" cy="4" rx="3.5" ry="4" transform="translate(21 -0.458)"/>
		<ellipse id="Ellipse_25-4" data-name="Ellipse 25" cx="3.5" cy="4" rx="3.5" ry="4" transform="translate(0 -0.458)"/>
	  </g>
	  <g id="Group_7" data-name="Group 7" transform="translate(0 73.667)">
		<circle id="Ellipse_14-5" data-name="Ellipse 14" cx="3.5" cy="3.5" r="3.5" transform="translate(231 0.125)"/>
		<circle id="Ellipse_15-5" data-name="Ellipse 15" cx="3.5" cy="3.5" r="3.5" transform="translate(210 0.125)"/>
		<circle id="Ellipse_16-5" data-name="Ellipse 16" cx="3.5" cy="3.5" r="3.5" transform="translate(189 0.125)"/>
		<circle id="Ellipse_17-5" data-name="Ellipse 17" cx="3.5" cy="3.5" r="3.5" transform="translate(168 0.125)"/>
		<circle id="Ellipse_18-5" data-name="Ellipse 18" cx="3.5" cy="3.5" r="3.5" transform="translate(147 0.125)"/>
		<circle id="Ellipse_19-5" data-name="Ellipse 19" cx="3.5" cy="3.5" r="3.5" transform="translate(126 0.125)"/>
		<circle id="Ellipse_20-5" data-name="Ellipse 20" cx="3.5" cy="3.5" r="3.5" transform="translate(105 0.125)"/>
		<circle id="Ellipse_21-5" data-name="Ellipse 21" cx="3.5" cy="3.5" r="3.5" transform="translate(84 0.125)"/>
		<circle id="Ellipse_22-5" data-name="Ellipse 22" cx="3.5" cy="3.5" r="3.5" transform="translate(63 0.125)"/>
		<circle id="Ellipse_23-5" data-name="Ellipse 23" cx="3.5" cy="3.5" r="3.5" transform="translate(42 0.125)"/>
		<circle id="Ellipse_24-5" data-name="Ellipse 24" cx="3.5" cy="3.5" r="3.5" transform="translate(21 0.125)"/>
		<circle id="Ellipse_25-5" data-name="Ellipse 25" cx="3.5" cy="3.5" r="3.5" transform="translate(0 0.125)"/>
	  </g>
	  <g id="Group_8" data-name="Group 8" transform="translate(0 92.083)">
		<circle id="Ellipse_14-6" data-name="Ellipse 14" cx="3.5" cy="3.5" r="3.5" transform="translate(231 -0.292)"/>
		<circle id="Ellipse_15-6" data-name="Ellipse 15" cx="3.5" cy="3.5" r="3.5" transform="translate(210 -0.292)"/>
		<circle id="Ellipse_16-6" data-name="Ellipse 16" cx="3.5" cy="3.5" r="3.5" transform="translate(189 -0.292)"/>
		<circle id="Ellipse_17-6" data-name="Ellipse 17" cx="3.5" cy="3.5" r="3.5" transform="translate(168 -0.292)"/>
		<circle id="Ellipse_18-6" data-name="Ellipse 18" cx="3.5" cy="3.5" r="3.5" transform="translate(147 -0.292)"/>
		<circle id="Ellipse_19-6" data-name="Ellipse 19" cx="3.5" cy="3.5" r="3.5" transform="translate(126 -0.292)"/>
		<circle id="Ellipse_20-6" data-name="Ellipse 20" cx="3.5" cy="3.5" r="3.5" transform="translate(105 -0.292)"/>
		<circle id="Ellipse_21-6" data-name="Ellipse 21" cx="3.5" cy="3.5" r="3.5" transform="translate(84 -0.292)"/>
		<circle id="Ellipse_22-6" data-name="Ellipse 22" cx="3.5" cy="3.5" r="3.5" transform="translate(63 -0.292)"/>
		<circle id="Ellipse_23-6" data-name="Ellipse 23" cx="3.5" cy="3.5" r="3.5" transform="translate(42 -0.292)"/>
		<circle id="Ellipse_24-6" data-name="Ellipse 24" cx="3.5" cy="3.5" r="3.5" transform="translate(21 -0.292)"/>
		<circle id="Ellipse_25-6" data-name="Ellipse 25" cx="3.5" cy="3.5" r="3.5" transform="translate(0 -0.292)"/>
	  </g>
	  <g id="Group_9" data-name="Group 9" transform="translate(0 110.5)">
		<circle id="Ellipse_14-7" data-name="Ellipse 14" cx="3.5" cy="3.5" r="3.5" transform="translate(231 0.292)"/>
		<circle id="Ellipse_15-7" data-name="Ellipse 15" cx="3.5" cy="3.5" r="3.5" transform="translate(210 0.292)"/>
		<circle id="Ellipse_16-7" data-name="Ellipse 16" cx="3.5" cy="3.5" r="3.5" transform="translate(189 0.292)"/>
		<circle id="Ellipse_17-7" data-name="Ellipse 17" cx="3.5" cy="3.5" r="3.5" transform="translate(168 0.292)"/>
		<circle id="Ellipse_18-7" data-name="Ellipse 18" cx="3.5" cy="3.5" r="3.5" transform="translate(147 0.292)"/>
		<circle id="Ellipse_19-7" data-name="Ellipse 19" cx="3.5" cy="3.5" r="3.5" transform="translate(126 0.292)"/>
		<circle id="Ellipse_20-7" data-name="Ellipse 20" cx="3.5" cy="3.5" r="3.5" transform="translate(105 0.292)"/>
		<circle id="Ellipse_21-7" data-name="Ellipse 21" cx="3.5" cy="3.5" r="3.5" transform="translate(84 0.292)"/>
		<circle id="Ellipse_22-7" data-name="Ellipse 22" cx="3.5" cy="3.5" r="3.5" transform="translate(63 0.292)"/>
		<circle id="Ellipse_23-7" data-name="Ellipse 23" cx="3.5" cy="3.5" r="3.5" transform="translate(42 0.292)"/>
		<circle id="Ellipse_24-7" data-name="Ellipse 24" cx="3.5" cy="3.5" r="3.5" transform="translate(21 0.292)"/>
		<circle id="Ellipse_25-7" data-name="Ellipse 25" cx="3.5" cy="3.5" r="3.5" transform="translate(0 0.292)"/>
	  </g>
	</g>
	<circle id="Oval" cx="230" cy="230" r="230" transform="translate(88.294)" fill="#ffec8c"/>
	<g id="Group_353" data-name="Group 353" transform="matrix(0.985, -0.174, 0.174, 0.985, -1106.175, -63.005)">
	  <g id="Group_4-2" data-name="Group 4" transform="translate(1064 331)">
		<g id="Group" transform="matrix(0.999, -0.035, 0.035, 0.999, 0, 11.796)">
		  <path id="base" d="M36.45,0h178.1A36.45,36.45,0,0,1,251,36.45v443.1A36.45,36.45,0,0,1,214.55,516H36.45A36.45,36.45,0,0,1,0,479.55V36.45A36.45,36.45,0,0,1,36.45,0Z" fill="#f2f2f2" stroke="#000" stroke-width="2"/>
		  <path id="Screen" d="M203.974,493.319H24.3A24.3,24.3,0,0,1,0,469.019V24.3A24.3,24.3,0,0,1,24.3,0H53V4.051a13.786,13.786,0,0,0,13.77,13.77h95.423a13.786,13.786,0,0,0,13.77-13.77V0h28.011a24.3,24.3,0,0,1,24.3,24.3V469.019a24.3,24.3,0,0,1-24.3,24.3Z" transform="translate(11 11)" fill="rgba(204,204,204,0.41)" stroke="#000" stroke-width="2"/>
		  <g id="Illustration" transform="translate(11.005 -0.279)">
			<path id="Mask-2" data-name="Mask" d="M0,0H319V504H0Z" fill="none"/>
			<g id="Illustration-2" data-name="Illustration" clip-path="url(#clip-path)">
			  <g id="Group_2" data-name="Group 2" transform="translate(-80.811 -134.489) rotate(14)">
				<g id="Head_Front" data-name="Head/Front" transform="matrix(0.848, 0.53, -0.53, 0.848, 317.835, 35.605)">
				  <g id="Head" transform="translate(80.393 18.791)">
					<path id="Head-2" data-name="Head" d="M0,124.7,14.132,58.915C6.251,49.676.916,38.353,1.807,25.666,4.377-10.89,55.332-2.848,65.243,15.6s8.735,65.251-4.075,68.549c-5.109,1.315-15.992-1.906-27.069-8.574l6.953,49.12Z" transform="translate(0 0)" fill="#cbc7c3" stroke="#000" stroke-width="2"/>
				  </g>
				  <path id="hair" d="M89.57,92.243c-6.3,0-12.136-4.019-16.441-11.316-4.08-6.916-6.42-16.284-6.42-25.7,0-.657.013-1.333.04-2.008-4.521,3.1-8.8,7.243-12.931,11.251-4.427,4.291-9,8.729-13.992,12.023-5.6,3.7-11.1,5.5-16.8,5.5-6.363,0-12.283-3.27-16.67-9.208A33.516,33.516,0,0,1,0,53.256a26.776,26.776,0,0,1,1.3-8.45,20.333,20.333,0,0,1,4.087-7.189,19.226,19.226,0,0,1,7.149-5,27.631,27.631,0,0,1,10.486-1.873c24.178,0,36,3.488,46.311,8.725A33.218,33.218,0,0,1,78.21,25.654a13.76,13.76,0,0,1,4.08-2.892A19.136,19.136,0,0,1,85.7,21.3c6.391-2.344,15.548-3.88,25.124-4.214,1.345-.047,2.69-.07,4-.07.5,0,1,0,1.49.01a17.1,17.1,0,1,1,18.031,17.111,86.138,86.138,0,0,1-19.134,3.248,35.727,35.727,0,0,1,1.1,9.164,51.644,51.644,0,0,1-.954,9.529,7.971,7.971,0,0,0-5.889-3.127,10.107,10.107,0,0,0-7.4,3.146,10.419,10.419,0,0,0-2.862,7.1,13.166,13.166,0,0,0,2.643,8.333,9.42,9.42,0,0,0,6.883,3.6,45.856,45.856,0,0,1-8.854,12.213C96.4,90.6,92.932,92.243,89.57,92.243Z" stroke="#000" stroke-width="2"/>
				</g>
				<g id="Bottom_Skinny_Jeans_1" data-name="Bottom/Skinny Jeans 1" transform="translate(16.325 328.978)">
				  <path id="Skirt_Shadow" data-name="Skirt Shadow" d="M0,26.781s64.676,17.1,111.6,17.1,87.173-26.33,87.173-26.33S135.482,0,94.527,0,0,26.781,0,26.781Z" transform="translate(159.552 147.149)" fill="#ffd500" stroke="#000" stroke-width="2"/>
				  <path id="Leg" d="M108.321,200.151a9.425,9.425,0,0,1-1.045-1.929C101.512,183.816,9.2,28.412,0,0H103.934c6.993,21.6,38.465,157.166,42.894,184.213C160.8,226.876,189.577,365.048,193.25,374.62c3.864,10.07-17.878,20.56-23.672,8.18-9.219-19.7-31.184-74.2-40.965-107.481C119.445,244.12,111.979,216.051,108.321,200.151Z" transform="translate(200.159 7.305)" fill="#c4c0bc" stroke="#000" stroke-width="2"/>
				  <path id="Leg-2" data-name="Leg" d="M220.771,219.125c-42.205,10.082-196.583,28.308-207.177,31.166C2.7,253.232-6.859,232,6.612,227.4c21.434-7.318,80.494-24.225,116.3-31.125,28.8-5.55,55.084-10.078,72.729-12.73C194.148,136.7,187.315,24.281,191.794,0h91.962c-4.295,23.284-40.6,193.175-47.35,210.181-2.142,6.071-8.532,8.754-15.634,8.944Z" transform="translate(2.676 7.305)" fill="#c4c0bc" stroke="#000" stroke-width="2"/>
				  <g id="Left_Shoe" data-name="Left Shoe" transform="matrix(0.174, 0.985, -0.985, 0.174, 20.354, 224.457)">
					<path id="shoe" d="M4.474,5.033A2,2,0,0,0,1.908,6.381L0,13.106A64.242,64.242,0,0,0,.9,21H57.3s2.2-7.268-2.538-7.848-7.87-1.047-7.87-1.047L20.68.419a1,1,0,0,0-1.332.532L17.663,5.039s-4.385,2.046-7.127,2.046Z" transform="translate(0 -0.332)" fill="#e4e4e4" stroke="#000" stroke-miterlimit="10" stroke-width="2"/>
				  </g>
				  <g id="Right_Shoe" data-name="Right Shoe" transform="translate(360.124 378.191)">
					<path id="shoe-2" data-name="shoe" d="M8.041,8.318a3.635,3.635,0,0,0-4.61,2.291L0,22.031c0,4.595,1.62,13.41,1.62,13.41H102.994s3.952-12.347-4.562-13.331-14.145-1.778-14.145-1.778L37.169.48a1.837,1.837,0,0,0-2.394.9L31.747,8.327S23.866,11.8,18.938,11.8Z" transform="translate(0 -0.332)" fill="#e4e4e4" stroke="#000" stroke-miterlimit="10" stroke-width="2"/>
				  </g>
				  <path id="Skirt" d="M41.985,7.843s60.787-16.437,115.031,0C169.6,62.1,200.169,83.629,205.545,166.808c-61.11,28.7-136.6-20.467-199.507,7.519C-11.935,135.181,13.228,40.908,41.985,7.843Z" transform="translate(152.781 -0.538)" fill="#ffd500" stroke="#000" stroke-width="2"/>
				</g>
				<g id="Body_Long_Sleeve_1" data-name="Body/Long Sleeve 1" transform="translate(194.088 129.629) rotate(21)">
				  <path id="Skin" d="M2.1,153.519c-1.909-1.176-4-5.6,1.051-9.061,12.586-8.619,30.723-23.7,33.173-28.667C41.336,105.636,58.405,6.657,58.405,6.657L94.149,6.8S61.044,113.528,58.405,120.057c-3.958,9.8,4.418,24.715,8,32.732-5.645,2.523-8.268-.7-11.139-3.919-3.06-3.433-6.406-6.866-14-3.338-9.716,4.515-17.75,11.681-27.325,11.68A22.239,22.239,0,0,1,2.1,153.519Zm305.67-96.043L257.383,27.81,273.476,0l48.456,47.207q21.147,9.007,34.654,19.894c2.026,2.44,4.23,7.113-5.3,5.023s-19.645-3.863-21.435-.77,3.485,7.836.175,11.887a1.253,1.253,0,0,1-1.015.484Q324.454,83.725,307.769,57.476Z" transform="translate(0 152.239)" fill="#c4c0bc" stroke="#000" stroke-width="2"/>
				  <path id="Coat_Back" data-name="Coat Back" d="M0,3.811,14.513,0Q60.871,91.6,162.476,160.885l-42.7,62.133C50.133,154.9,4.526,82.332,0,3.811Z" transform="matrix(0.996, 0.087, -0.087, 0.996, 160.319, 5.311)" stroke="#000" stroke-width="2"/>
				  <path id="Shirt" d="M0,194.734H131.708S85.937,83.6,85.937,5.912L46.208,0C14.984,50.15,6.166,111.895,0,194.734Z" transform="translate(95.509 0)" fill="#ccc" stroke="#000" stroke-width="2"/>
				  <path id="Coat_Front" data-name="Coat Front" d="M0,251.1C14.4,88.819,105.2,0,105.2,0l.031.027L105.249,0h2.594c4.655.16,14.18.577,14.18.577l9.6,27.4c1.524,50.106,17.791,201.958,17.791,201.958H63.2q.22,10.443.993,21.171Z" transform="translate(35.642)" stroke="#000" stroke-width="2"/>
				  <path id="Shade" d="M24.124,84.553H.106A435.851,435.851,0,0,1,6.6,0,458.765,458.765,0,0,0,12.4,47.292c3.129,16.926,7.073,29.461,11.723,37.258Z" transform="translate(98.753 146.054)" fill="rgba(0,0,0,0.1)" stroke="#000" stroke-width="2"/>
				  <path id="Light" d="M0,19.765,42.573,0V19.765Z" transform="translate(117.935 157.887)" fill="rgba(255,255,255,0.2)" stroke="#000" stroke-miterlimit="10" stroke-width="2"/>
				</g>
			  </g>
			</g>
		  </g>
		</g>
	  </g>
	  <g id="Group_352" data-name="Group 352">
		<path id="Oval-2" data-name="Oval" d="M16.888,42.088c9.327,0,16.888-13.39,16.888-5.718S26.214,50.26,16.888,50.26,0,44.042,0,36.37,7.561,42.088,16.888,42.088Z" transform="translate(1360.338 445.563) rotate(140)" fill="#fff" stroke="#000" stroke-width="2"/>
		<path id="Path_218" data-name="Path 218" d="M0,0S7.668,1.121,9.669,5.382,6.716,12.688,8,17.042s3.815,5.42,6.814,5.754S20,18.378,20,18.378" transform="translate(1314.81 399.26) rotate(50)" fill="none" stroke="#fff" stroke-width="2"/>
		<circle id="Ellipse_47" data-name="Ellipse 47" cx="5" cy="5" r="5" transform="translate(1312 399)" fill="#fff"/>
	  </g>
	</g>
  </svg>
  