<svg xmlns="http://www.w3.org/2000/svg" width="665" height="809" viewBox="0 0 665 809">
	<g id="Group_345" data-name="Group 345" transform="translate(8324 -5232)">
	  <g id="Group_129" data-name="Group 129" transform="translate(-7995 5836)">
		<g id="Group_3" data-name="Group 3">
		  <circle id="Ellipse_14" data-name="Ellipse 14" cx="5" cy="5" r="5" transform="translate(326)" fill="#ffd500"/>
		  <circle id="Ellipse_15" data-name="Ellipse 15" cx="5" cy="5" r="5" transform="translate(296)" fill="#ffd500"/>
		  <circle id="Ellipse_16" data-name="Ellipse 16" cx="5" cy="5" r="5" transform="translate(267)" fill="#ffd500"/>
		  <circle id="Ellipse_17" data-name="Ellipse 17" cx="5" cy="5" r="5" transform="translate(237)" fill="#ffd500"/>
		  <circle id="Ellipse_18" data-name="Ellipse 18" cx="5" cy="5" r="5" transform="translate(207)" fill="#ffd500"/>
		  <circle id="Ellipse_19" data-name="Ellipse 19" cx="5" cy="5" r="5" transform="translate(178)" fill="#ffd500"/>
		  <circle id="Ellipse_20" data-name="Ellipse 20" cx="5" cy="5" r="5" transform="translate(148)" fill="#ffd500"/>
		  <circle id="Ellipse_21" data-name="Ellipse 21" cx="5" cy="5" r="5" transform="translate(119)" fill="#ffd500"/>
		  <circle id="Ellipse_22" data-name="Ellipse 22" cx="5" cy="5" r="5" transform="translate(89)" fill="#ffd500"/>
		  <circle id="Ellipse_23" data-name="Ellipse 23" cx="5" cy="5" r="5" transform="translate(59)" fill="#ffd500"/>
		  <circle id="Ellipse_24" data-name="Ellipse 24" cx="5" cy="5" r="5" transform="translate(30)" fill="#ffd500"/>
		  <circle id="Ellipse_25" data-name="Ellipse 25" cx="5" cy="5" r="5" fill="#ffd500"/>
		</g>
		<g id="Group_4" data-name="Group 4" transform="translate(0 26)">
		  <circle id="Ellipse_14-2" data-name="Ellipse 14" cx="5" cy="5" r="5" transform="translate(326)" fill="#ffd500"/>
		  <circle id="Ellipse_15-2" data-name="Ellipse 15" cx="5" cy="5" r="5" transform="translate(296)" fill="#ffd500"/>
		  <circle id="Ellipse_16-2" data-name="Ellipse 16" cx="5" cy="5" r="5" transform="translate(267)" fill="#ffd500"/>
		  <circle id="Ellipse_17-2" data-name="Ellipse 17" cx="5" cy="5" r="5" transform="translate(237)" fill="#ffd500"/>
		  <circle id="Ellipse_18-2" data-name="Ellipse 18" cx="5" cy="5" r="5" transform="translate(207)" fill="#ffd500"/>
		  <circle id="Ellipse_19-2" data-name="Ellipse 19" cx="5" cy="5" r="5" transform="translate(178)" fill="#ffd500"/>
		  <circle id="Ellipse_20-2" data-name="Ellipse 20" cx="5" cy="5" r="5" transform="translate(148)" fill="#ffd500"/>
		  <circle id="Ellipse_21-2" data-name="Ellipse 21" cx="5" cy="5" r="5" transform="translate(119)" fill="#ffd500"/>
		  <circle id="Ellipse_22-2" data-name="Ellipse 22" cx="5" cy="5" r="5" transform="translate(89)" fill="#ffd500"/>
		  <circle id="Ellipse_23-2" data-name="Ellipse 23" cx="5" cy="5" r="5" transform="translate(59)" fill="#ffd500"/>
		  <circle id="Ellipse_24-2" data-name="Ellipse 24" cx="5" cy="5" r="5" transform="translate(30)" fill="#ffd500"/>
		  <circle id="Ellipse_25-2" data-name="Ellipse 25" cx="5" cy="5" r="5" fill="#ffd500"/>
		</g>
		<g id="Group_5" data-name="Group 5" transform="translate(0 52)">
		  <circle id="Ellipse_14-3" data-name="Ellipse 14" cx="5" cy="5" r="5" transform="translate(326)" fill="#ffd500"/>
		  <circle id="Ellipse_15-3" data-name="Ellipse 15" cx="5" cy="5" r="5" transform="translate(296)" fill="#ffd500"/>
		  <circle id="Ellipse_16-3" data-name="Ellipse 16" cx="5" cy="5" r="5" transform="translate(267)" fill="#ffd500"/>
		  <circle id="Ellipse_17-3" data-name="Ellipse 17" cx="5" cy="5" r="5" transform="translate(237)" fill="#ffd500"/>
		  <circle id="Ellipse_18-3" data-name="Ellipse 18" cx="5" cy="5" r="5" transform="translate(207)" fill="#ffd500"/>
		  <circle id="Ellipse_19-3" data-name="Ellipse 19" cx="5" cy="5" r="5" transform="translate(178)" fill="#ffd500"/>
		  <circle id="Ellipse_20-3" data-name="Ellipse 20" cx="5" cy="5" r="5" transform="translate(148)" fill="#ffd500"/>
		  <circle id="Ellipse_21-3" data-name="Ellipse 21" cx="5" cy="5" r="5" transform="translate(119)" fill="#ffd500"/>
		  <circle id="Ellipse_22-3" data-name="Ellipse 22" cx="5" cy="5" r="5" transform="translate(89)" fill="#ffd500"/>
		  <circle id="Ellipse_23-3" data-name="Ellipse 23" cx="5" cy="5" r="5" transform="translate(59)" fill="#ffd500"/>
		  <circle id="Ellipse_24-3" data-name="Ellipse 24" cx="5" cy="5" r="5" transform="translate(30)" fill="#ffd500"/>
		  <circle id="Ellipse_25-3" data-name="Ellipse 25" cx="5" cy="5" r="5" fill="#ffd500"/>
		</g>
		<g id="Group_6" data-name="Group 6" transform="translate(0 78)">
		  <circle id="Ellipse_14-4" data-name="Ellipse 14" cx="5" cy="5" r="5" transform="translate(326)" fill="#ffd500"/>
		  <circle id="Ellipse_15-4" data-name="Ellipse 15" cx="5" cy="5" r="5" transform="translate(296)" fill="#ffd500"/>
		  <circle id="Ellipse_16-4" data-name="Ellipse 16" cx="5" cy="5" r="5" transform="translate(267)" fill="#ffd500"/>
		  <circle id="Ellipse_17-4" data-name="Ellipse 17" cx="5" cy="5" r="5" transform="translate(237)" fill="#ffd500"/>
		  <circle id="Ellipse_18-4" data-name="Ellipse 18" cx="5" cy="5" r="5" transform="translate(207)" fill="#ffd500"/>
		  <circle id="Ellipse_19-4" data-name="Ellipse 19" cx="5" cy="5" r="5" transform="translate(178)" fill="#ffd500"/>
		  <circle id="Ellipse_20-4" data-name="Ellipse 20" cx="5" cy="5" r="5" transform="translate(148)" fill="#ffd500"/>
		  <circle id="Ellipse_21-4" data-name="Ellipse 21" cx="5" cy="5" r="5" transform="translate(119)" fill="#ffd500"/>
		  <circle id="Ellipse_22-4" data-name="Ellipse 22" cx="5" cy="5" r="5" transform="translate(89)" fill="#ffd500"/>
		  <circle id="Ellipse_23-4" data-name="Ellipse 23" cx="5" cy="5" r="5" transform="translate(59)" fill="#ffd500"/>
		  <circle id="Ellipse_24-4" data-name="Ellipse 24" cx="5" cy="5" r="5" transform="translate(30)" fill="#ffd500"/>
		  <circle id="Ellipse_25-4" data-name="Ellipse 25" cx="5" cy="5" r="5" fill="#ffd500"/>
		</g>
		<g id="Group_7" data-name="Group 7" transform="translate(0 104)">
		  <circle id="Ellipse_14-5" data-name="Ellipse 14" cx="5" cy="5" r="5" transform="translate(326)" fill="#ffd500"/>
		  <circle id="Ellipse_15-5" data-name="Ellipse 15" cx="5" cy="5" r="5" transform="translate(296)" fill="#ffd500"/>
		  <circle id="Ellipse_16-5" data-name="Ellipse 16" cx="5" cy="5" r="5" transform="translate(267)" fill="#ffd500"/>
		  <circle id="Ellipse_17-5" data-name="Ellipse 17" cx="5" cy="5" r="5" transform="translate(237)" fill="#ffd500"/>
		  <circle id="Ellipse_18-5" data-name="Ellipse 18" cx="5" cy="5" r="5" transform="translate(207)" fill="#ffd500"/>
		  <circle id="Ellipse_19-5" data-name="Ellipse 19" cx="5" cy="5" r="5" transform="translate(178)" fill="#ffd500"/>
		  <circle id="Ellipse_20-5" data-name="Ellipse 20" cx="5" cy="5" r="5" transform="translate(148)" fill="#ffd500"/>
		  <circle id="Ellipse_21-5" data-name="Ellipse 21" cx="5" cy="5" r="5" transform="translate(119)" fill="#ffd500"/>
		  <circle id="Ellipse_22-5" data-name="Ellipse 22" cx="5" cy="5" r="5" transform="translate(89)" fill="#ffd500"/>
		  <circle id="Ellipse_23-5" data-name="Ellipse 23" cx="5" cy="5" r="5" transform="translate(59)" fill="#ffd500"/>
		  <circle id="Ellipse_24-5" data-name="Ellipse 24" cx="5" cy="5" r="5" transform="translate(30)" fill="#ffd500"/>
		  <circle id="Ellipse_25-5" data-name="Ellipse 25" cx="5" cy="5" r="5" fill="#ffd500"/>
		</g>
		<g id="Group_8" data-name="Group 8" transform="translate(0 130)">
		  <circle id="Ellipse_14-6" data-name="Ellipse 14" cx="5" cy="5" r="5" transform="translate(326)" fill="#ffd500"/>
		  <circle id="Ellipse_15-6" data-name="Ellipse 15" cx="5" cy="5" r="5" transform="translate(296)" fill="#ffd500"/>
		  <circle id="Ellipse_16-6" data-name="Ellipse 16" cx="5" cy="5" r="5" transform="translate(267)" fill="#ffd500"/>
		  <circle id="Ellipse_17-6" data-name="Ellipse 17" cx="5" cy="5" r="5" transform="translate(237)" fill="#ffd500"/>
		  <circle id="Ellipse_18-6" data-name="Ellipse 18" cx="5" cy="5" r="5" transform="translate(207)" fill="#ffd500"/>
		  <circle id="Ellipse_19-6" data-name="Ellipse 19" cx="5" cy="5" r="5" transform="translate(178)" fill="#ffd500"/>
		  <circle id="Ellipse_20-6" data-name="Ellipse 20" cx="5" cy="5" r="5" transform="translate(148)" fill="#ffd500"/>
		  <circle id="Ellipse_21-6" data-name="Ellipse 21" cx="5" cy="5" r="5" transform="translate(119)" fill="#ffd500"/>
		  <circle id="Ellipse_22-6" data-name="Ellipse 22" cx="5" cy="5" r="5" transform="translate(89)" fill="#ffd500"/>
		  <circle id="Ellipse_23-6" data-name="Ellipse 23" cx="5" cy="5" r="5" transform="translate(59)" fill="#ffd500"/>
		  <circle id="Ellipse_24-6" data-name="Ellipse 24" cx="5" cy="5" r="5" transform="translate(30)" fill="#ffd500"/>
		  <circle id="Ellipse_25-6" data-name="Ellipse 25" cx="5" cy="5" r="5" fill="#ffd500"/>
		</g>
		<g id="Group_9" data-name="Group 9" transform="translate(0 156)">
		  <circle id="Ellipse_14-7" data-name="Ellipse 14" cx="5" cy="5" r="5" transform="translate(326)" fill="#ffd500"/>
		  <circle id="Ellipse_15-7" data-name="Ellipse 15" cx="5" cy="5" r="5" transform="translate(296)" fill="#ffd500"/>
		  <circle id="Ellipse_16-7" data-name="Ellipse 16" cx="5" cy="5" r="5" transform="translate(267)" fill="#ffd500"/>
		  <circle id="Ellipse_17-7" data-name="Ellipse 17" cx="5" cy="5" r="5" transform="translate(237)" fill="#ffd500"/>
		  <circle id="Ellipse_18-7" data-name="Ellipse 18" cx="5" cy="5" r="5" transform="translate(207)" fill="#ffd500"/>
		  <circle id="Ellipse_19-7" data-name="Ellipse 19" cx="5" cy="5" r="5" transform="translate(178)" fill="#ffd500"/>
		  <circle id="Ellipse_20-7" data-name="Ellipse 20" cx="5" cy="5" r="5" transform="translate(148)" fill="#ffd500"/>
		  <circle id="Ellipse_21-7" data-name="Ellipse 21" cx="5" cy="5" r="5" transform="translate(119)" fill="#ffd500"/>
		  <circle id="Ellipse_22-7" data-name="Ellipse 22" cx="5" cy="5" r="5" transform="translate(89)" fill="#ffd500"/>
		  <circle id="Ellipse_23-7" data-name="Ellipse 23" cx="5" cy="5" r="5" transform="translate(59)" fill="#ffd500"/>
		  <circle id="Ellipse_24-7" data-name="Ellipse 24" cx="5" cy="5" r="5" transform="translate(30)" fill="#ffd500"/>
		  <circle id="Ellipse_25-7" data-name="Ellipse 25" cx="5" cy="5" r="5" fill="#ffd500"/>
		</g>
	  </g>
	  <line id="Line_19" data-name="Line 19" x2="457" transform="translate(-8238.5 5865.5)" fill="none" stroke="#000" stroke-width="2"/>
	  <g id="humaaan-2" transform="translate(-8165.298 5399.482)">
		<g id="Head_Front" data-name="Head/Front" transform="translate(16.099 -8.671)">
		  <g id="Head" transform="translate(152.324 47.072)">
			<path id="Head-2" data-name="Head" d="M0,90.426l10.232-47.7C4.526,36.023.663,27.812,1.308,18.612,3.169-7.9,40.061-2.065,47.236,11.314s6.324,47.317-2.95,49.709c-3.7.954-11.578-1.382-19.6-6.217l5.034,35.62Z" transform="translate(0 0)" fill="#fff" stroke="#000" stroke-width="2"/>
		  </g>
		  <path id="hair" d="M182.62,42.965c-3.917-.643-14.465-1.084-16.41-1.084-1.243,0-2.59.284-3.326-.858-.6-.935-.382-2.516-.562-3.6-.209-1.26-.506-2.5-.806-3.745a38.086,38.086,0,0,0-3.953-10.044,30.869,30.869,0,0,0-14.631-13.249c-6.926-2.978-14.763-3.66-22.212-3.056-7.972.646-15.189,3.279-22.715,5.756a47.6,47.6,0,0,1-22.187,2.137c-7.558-1.161-13.27-5.259-19.645-9.148C49.646,2.091,42.187-.513,34.471.085c-7.2.559-13.84,3.534-19.8,7.507C9.1,11.31,4.506,15.783,1.91,22.079c-2.792,6.772-2.79,14.205,1.8,20.19C10.368,50.944,22.725,53.187,33,52.964a55.954,55.954,0,0,0,17.4-3.189c7.487-2.634,13.957-7.1,20.961-10.721a54.536,54.536,0,0,1,10.246-4.1c3.456-.976,6.86-1.424,9.989.664,3.31,2.209,6.276,4.379,10.063,5.762a32.447,32.447,0,0,0,11.351,2.039c7.53-.058,14.953-2.405,22.267-3.977,5.964-1.282,12.346-2.559,18.426-1.327,2.537.514,6.243,1.576,7.16,4.213-15.424,2.8-21.481,21.876-17.133,35.882,2.347,7.56,16.453,16.4,21.938,12.423,3.475-2.518,1.365-5.823,0-8.005-2.615-4.179-3.509-9.546,1.329-12.456,4.173-2.509,8.561,3.449,8.644,3.443,1.147-.09,11.058-5.7,17.886-13.878,6.736.4,7.758-4.043,6.15-7.677S188.032,43.854,182.62,42.965Z" transform="translate(0 0)" fill="#ffd500" stroke="#000" stroke-width="2"/>
		</g>
		<g id="Bottom_Skinny_Jeans_1" data-name="Bottom/Skinny Jeans 1" transform="translate(8.955 231.64)">
		  <path id="Leg" d="M0,0,92.021,153.882l68.99,130.094h14.86L60.278,0Z" transform="translate(152.037 0)" fill="#fff" stroke="#000" stroke-width="2"/>
		  <g id="Right_Shoe" data-name="Right Shoe" transform="translate(300.646 246.504)">
			<path id="shoe" d="M5.54,6.155a2.477,2.477,0,0,0-3.177,1.67L0,16.155a79.6,79.6,0,0,0,1.116,9.779H70.964s2.723-9-3.143-9.721-9.746-1.3-9.746-1.3L25.61.44a1.238,1.238,0,0,0-1.649.659L21.874,6.162S16.444,8.7,13.049,8.7Z" transform="translate(1.238 23.615)" fill="#ccc" stroke="#000" stroke-miterlimit="10" stroke-width="2"/>
		  </g>
		  <path id="Pant" d="M157.152,263.144l28.657-8.671s-18.833-56.314-46.165-123.944S80.937,0,80.937,0H0S34.882,79.565,73.96,144.589,157.152,263.144,157.152,263.144Z" transform="translate(136.736 0)" stroke="#000" stroke-width="2"/>
		  <path id="Leg-2" data-name="Leg" d="M140.84,0c-8.685,54.075-25.436,123.162-27.017,125.294Q112.242,127.426,0,163.445l3.21,13.107q133.848-19.317,141.053-29.974c7.2-10.657,43.18-94.845,57.114-146.578Z" transform="translate(5.15 0)" fill="#fff" stroke="#000" stroke-width="2"/>
		  <path id="Pant-2" data-name="Pant" d="M0,152.115l5.654,21.11q100.111,8.782,122.68-12.692T179.778,0H102.6Q84.305,113.87,82.144,118.65T0,152.115Z" transform="translate(31.453)" stroke="#000" stroke-width="2"/>
		  <g id="Left_Shoe" data-name="Left Shoe" transform="matrix(0.174, 0.985, -0.985, 0.174, 20.354, 153.595)">
			<path id="shoe-2" data-name="shoe" d="M4.474,5.033A2,2,0,0,0,1.908,6.381L0,13.106A64.242,64.242,0,0,0,.9,21H57.3s2.2-7.268-2.538-7.848-7.87-1.047-7.87-1.047L20.68.419a1,1,0,0,0-1.332.532L17.663,5.039s-4.385,2.046-7.127,2.046Z" transform="translate(0 -0.332)" fill="#ccc" stroke="#000" stroke-miterlimit="10" stroke-width="2"/>
		  </g>
		</g>
		<g id="Body_Long_Sleeve_1" data-name="Body/Long Sleeve 1" transform="translate(69.552 101.575)">
		  <path id="Skin" d="M1.519,111.326c-1.382-.853-2.9-4.062.761-6.571,9.113-6.25,22.243-17.188,24.018-20.788C29.927,76.6,42.286,4.827,42.286,4.827l25.879.1S44.2,82.326,42.286,87.06c-2.866,7.1,3.2,17.922,5.791,23.736-4.087,1.829-5.986-.506-8.065-2.842-2.216-2.489-4.638-4.979-10.135-2.42-7.035,3.274-12.851,8.471-19.784,8.47A16.083,16.083,0,0,1,1.519,111.326ZM222.826,41.68l-36.48-21.513L198,0,233.08,34.232q15.311,6.532,25.09,14.426c1.467,1.769,3.063,5.158-3.835,3.642s-14.223-2.8-15.519-.559,2.523,5.682.127,8.62a.906.906,0,0,1-.735.351Q234.906,60.714,222.826,41.68Z" transform="translate(0 110.397)" fill="#fff" stroke="#000" stroke-width="2"/>
		  <path id="Coat_Back" data-name="Coat Back" d="M0,2.764,10.508,0Q44.08,66.429,117.651,116.682L86.745,161.733C36.312,112.333,3.285,59.7,0,2.764Z" transform="matrix(0.996, 0.087, -0.087, 0.996, 116.072, 3.852)" fill="#ffd500" stroke="#000" stroke-width="2"/>
		  <path id="Shirt" d="M0,141.213H95.357S62.219,60.62,62.219,4.287L33.455,0C10.848,36.367,4.464,81.141,0,141.213Z" transform="translate(69.149 2)" fill="#ccc" stroke="#000" stroke-width="2"/>
		  <path id="Coat_Front" data-name="Coat Front" d="M0,182.091C10.429,64.408,76.167,0,76.167,0l.022.02L76.2,0h1.878c3.37.116,10.266.418,10.266.418L95.3,20.287c1.1,36.335,12.881,146.451,12.881,146.451H45.759q.159,7.573.719,15.353Z" transform="translate(25.805 0)" fill="#ffd500" stroke="#000" stroke-width="2"/>
		  <path id="Shade" d="M17.466,61.314H.077A316.554,316.554,0,0,1,4.782,0a333.183,333.183,0,0,0,4.2,34.294c2.265,12.274,5.121,21.364,8.488,27.018Z" transform="translate(71.498 105.912)" fill="#c2a405" stroke="#000" stroke-width="2"/>
		  <path id="Light" d="M0,14.333,30.823,0V14.333Z" transform="translate(85.386 114.493)" fill="#ccc" stroke="#000" stroke-miterlimit="10" stroke-width="2"/>
		</g>
	  </g>
	  <line id="Line_18" data-name="Line 18" x2="138" y2="266" transform="translate(-7851.5 5661.5)" fill="none" stroke="#000" stroke-width="2"/>
	  <line id="Line_20" data-name="Line 20" x2="20" y2="17.714" transform="matrix(0.848, 0.53, -0.53, 0.848, -7809.161, 5338.863)" fill="none" stroke="#000" stroke-width="2"/>
	  <line id="Line_21" data-name="Line 21" y1="17.714" x2="20" transform="matrix(0.848, 0.53, -0.53, 0.848, -7809.161, 5338.863)" fill="none" stroke="#000" stroke-width="2"/>
	  <line id="Line_22" data-name="Line 22" x2="20" y2="17.714" transform="matrix(0.848, 0.53, -0.53, 0.848, -7809.161, 5338.863)" fill="none" stroke="#000" stroke-width="2"/>
	  <line id="Line_23" data-name="Line 23" x2="20" y2="17.714" transform="matrix(0.848, -0.53, 0.53, 0.848, -8282.136, 5776.978)" fill="none" stroke="#000" stroke-width="2"/>
	  <line id="Line_24" data-name="Line 24" y1="17.714" x2="20" transform="matrix(0.848, -0.53, 0.53, 0.848, -8282.136, 5776.978)" fill="none" stroke="#000" stroke-width="2"/>
	  <g id="Ellipse_9" data-name="Ellipse 9" transform="translate(-8256 5554.379)" fill="#ffd500" stroke="#ffd500" stroke-width="2">
		<circle cx="7.5" cy="7.5" r="7.5" stroke="none"/>
		<circle cx="7.5" cy="7.5" r="6.5" fill="none"/>
	  </g>
	  <line id="Line_26" data-name="Line 26" x2="138" y2="266" transform="translate(-7851.5 5661.5)" fill="none" stroke="#000" stroke-width="2"/>
	  <circle id="Oval" cx="41" cy="41" r="41" transform="translate(-8027 5232)" fill="#e3e3e3"/>
	  <path id="Polygon" d="M49,98,98,49,49,0,0,49Z" transform="translate(-8213 5943)" fill="#e3e3e3"/>
	  <path id="Polygon-2" data-name="Polygon" d="M24,48,48,24,24,0,0,24Z" transform="translate(-8324 5303)" fill="rgba(255,213,0,0.98)"/>
	</g>
  </svg>
  